<?xml version="1.0" encoding="UTF-8" standalone="no"?>
<!-- Generated by SVGo -->

<svg
   width="352.901mm"
   height="143.009mm"
   viewBox="0.000 0.000 352.901 143.009"
   version="1.1"
   id="svg300"
   sodipodi:docname="switch_plate_deleted_stabs.svg"
   inkscape:version="1.2.2 (b0a8486541, 2022-12-01)"
   xmlns:inkscape="http://www.inkscape.org/namespaces/inkscape"
   xmlns:sodipodi="http://sodipodi.sourceforge.net/DTD/sodipodi-0.dtd"
   xmlns="http://www.w3.org/2000/svg"
   xmlns:svg="http://www.w3.org/2000/svg">
  <defs
     id="defs304" />
  <sodipodi:namedview
     id="namedview302"
     pagecolor="#ffffff"
     bordercolor="#000000"
     borderopacity="0.25"
     inkscape:showpageshadow="2"
     inkscape:pageopacity="0.0"
     inkscape:pagecheckerboard="0"
     inkscape:deskcolor="#d1d1d1"
     inkscape:document-units="mm"
     showgrid="false"
     inkscape:zoom="0.94259765"
     inkscape:cx="765.96839"
     inkscape:cy="335.77423"
     inkscape:window-width="1920"
     inkscape:window-height="1043"
     inkscape:window-x="0"
     inkscape:window-y="0"
     inkscape:window-maximized="1"
     inkscape:current-layer="svg300" />
  <polygon
     points="347.901,138.009 5.000,138.009 5.000,5.000 347.901,5.000"
     style="fill:none;stroke-width:0.050000mm;stroke:black"
     id="polygon202" />
  <polygon
     points="134.484,119.309 146.608,126.309 153.608,114.185 141.484,107.185"
     style="fill:none;stroke-width:0.050000mm;stroke:black"
     id="polygon206" />
  <polygon
     points="223.103,105.936 230.103,118.061 242.228,111.061 235.228,98.936"
     style="fill:none;stroke-width:0.050000mm;stroke:black"
     id="polygon212" />
  <polygon
     points="117.986,109.784 130.110,116.784 137.111,104.660 124.986,97.660"
     style="fill:none;stroke-width:0.050000mm;stroke:black"
     id="polygon214" />
  <polygon
     points="239.601,96.411 246.601,108.536 258.725,101.536 251.725,89.411"
     style="fill:none;stroke-width:0.050000mm;stroke:black"
     id="polygon220" />
  <polygon
     points="78.962,88.487 78.962,102.487 92.962,102.487 92.962,88.487"
     style="fill:none;stroke-width:0.050000mm;stroke:black"
     id="polygon232" />
  <polygon
     points="288.512,88.487 288.512,102.487 302.512,102.487 302.512,88.487"
     style="fill:none;stroke-width:0.050000mm;stroke:black"
     id="polygon234" />
  <polygon
     points="36.100,71.818 36.100,85.818 50.100,85.818 50.100,71.818"
     style="fill:none;stroke-width:0.050000mm;stroke:black"
     id="polygon240" />
  <polygon
     points="331.375,71.818 331.375,85.818 345.375,85.818 345.375,71.818"
     style="fill:none;stroke-width:0.050000mm;stroke:black"
     id="polygon242" />
  <polygon
     points="112.300,69.437 112.300,83.437 126.300,83.437 126.300,69.437"
     style="fill:none;stroke-width:0.050000mm;stroke:black"
     id="polygon244" />
  <polygon
     points="255.175,69.437 255.175,83.437 269.175,83.437 269.175,69.437"
     style="fill:none;stroke-width:0.050000mm;stroke:black"
     id="polygon246" />
  <polygon
     points="55.150,67.056 55.150,81.056 69.150,81.056 69.150,67.056"
     style="fill:none;stroke-width:0.050000mm;stroke:black"
     id="polygon248" />
  <polygon
     points="93.250,67.056 93.250,81.056 107.250,81.056 107.250,67.056"
     style="fill:none;stroke-width:0.050000mm;stroke:black"
     id="polygon250" />
  <polygon
     points="274.225,67.056 274.225,81.056 288.225,81.056 288.225,67.056"
     style="fill:none;stroke-width:0.050000mm;stroke:black"
     id="polygon252" />
  <polygon
     points="312.325,67.056 312.325,81.056 326.325,81.056 326.325,67.056"
     style="fill:none;stroke-width:0.050000mm;stroke:black"
     id="polygon254" />
  <polygon
     points="74.200,64.675 74.200,78.675 88.200,78.675 88.200,64.675"
     style="fill:none;stroke-width:0.050000mm;stroke:black"
     id="polygon256" />
  <polygon
     points="293.275,64.675 293.275,78.675 307.275,78.675 307.275,64.675"
     style="fill:none;stroke-width:0.050000mm;stroke:black"
     id="polygon258" />
  <polygon
     points="36.100,52.768 36.100,66.768 50.100,66.768 50.100,52.768"
     style="fill:none;stroke-width:0.050000mm;stroke:black"
     id="polygon260" />
  <polygon
     points="331.375,52.768 331.375,66.768 345.375,66.768 345.375,52.768"
     style="fill:none;stroke-width:0.050000mm;stroke:black"
     id="polygon262" />
  <polygon
     points="112.300,50.387 112.300,64.387 126.300,64.387 126.300,50.387"
     style="fill:none;stroke-width:0.050000mm;stroke:black"
     id="polygon264" />
  <polygon
     points="255.175,50.387 255.175,64.387 269.175,64.387 269.175,50.387"
     style="fill:none;stroke-width:0.050000mm;stroke:black"
     id="polygon266" />
  <polygon
     points="55.150,48.006 55.150,62.006 69.150,62.006 69.150,48.006"
     style="fill:none;stroke-width:0.050000mm;stroke:black"
     id="polygon268" />
  <polygon
     points="93.250,48.006 93.250,62.006 107.250,62.006 107.250,48.006"
     style="fill:none;stroke-width:0.050000mm;stroke:black"
     id="polygon270" />
  <polygon
     points="274.225,48.006 274.225,62.006 288.225,62.006 288.225,48.006"
     style="fill:none;stroke-width:0.050000mm;stroke:black"
     id="polygon272" />
  <polygon
     points="312.325,48.006 312.325,62.006 326.325,62.006 326.325,48.006"
     style="fill:none;stroke-width:0.050000mm;stroke:black"
     id="polygon274" />
  <polygon
     points="74.200,45.625 74.200,59.625 88.200,59.625 88.200,45.625"
     style="fill:none;stroke-width:0.050000mm;stroke:black"
     id="polygon276" />
  <polygon
     points="293.275,45.625 293.275,59.625 307.275,59.625 307.275,45.625"
     style="fill:none;stroke-width:0.050000mm;stroke:black"
     id="polygon278" />
  <polygon
     points="36.100,33.718 36.100,47.718 50.100,47.718 50.100,33.718"
     style="fill:none;stroke-width:0.050000mm;stroke:black"
     id="polygon280" />
  <polygon
     points="331.375,33.718 331.375,47.718 345.375,47.718 345.375,33.718"
     style="fill:none;stroke-width:0.050000mm;stroke:black"
     id="polygon282" />
  <polygon
     points="112.300,31.337 112.300,45.337 126.300,45.337 126.300,31.337"
     style="fill:none;stroke-width:0.050000mm;stroke:black"
     id="polygon284" />
  <polygon
     points="255.175,31.337 255.175,45.337 269.175,45.337 269.175,31.337"
     style="fill:none;stroke-width:0.050000mm;stroke:black"
     id="polygon286" />
  <polygon
     points="55.150,28.956 55.150,42.956 69.150,42.956 69.150,28.956"
     style="fill:none;stroke-width:0.050000mm;stroke:black"
     id="polygon288" />
  <polygon
     points="93.250,28.956 93.250,42.956 107.250,42.956 107.250,28.956"
     style="fill:none;stroke-width:0.050000mm;stroke:black"
     id="polygon290" />
  <polygon
     points="274.225,28.956 274.225,42.956 288.225,42.956 288.225,28.956"
     style="fill:none;stroke-width:0.050000mm;stroke:black"
     id="polygon292" />
  <polygon
     points="312.325,28.956 312.325,42.956 326.325,42.956 326.325,28.956"
     style="fill:none;stroke-width:0.050000mm;stroke:black"
     id="polygon294" />
  <polygon
     points="74.200,26.575 74.200,40.575 88.200,40.575 88.200,26.575"
     style="fill:none;stroke-width:0.050000mm;stroke:black"
     id="polygon296" />
  <polygon
     points="293.275,26.575 293.275,40.575 307.275,40.575 307.275,26.575"
     style="fill:none;stroke-width:0.050000mm;stroke:black"
     id="polygon298" />
</svg>
