  0
SECTION
  2
BLOCKS
  0
ENDSEC
  0
SECTION
  2
ENTITIES
  0
LINE
  8
0
 10
103.7
 20
71.2698
 11
108.584
 21
68.45
  0
LINE
  8
0
 10
108.584
 20
68.45
 11
136.634
 21
117.034
  0
LINE
  8
0
 10
136.634
 20
117.034
 11
88.05
 21
145.084
  0
LINE
  8
0
 10
88.05
 20
145.084
 11
72.5574
 21
118.25
  0
LINE
  8
0
 10
72.5574
 20
118.25
 11
0
 21
118.25
  0
LINE
  8
0
 10
0
 20
118.25
 11
0
 21
0
  0
LINE
  8
0
 10
0
 20
0
 11
103.7
 21
0
  0
LINE
  8
0
 10
103.7
 20
0
 11
103.7
 21
71.2698
  0
LINE
  8
0
 10
89.8432
 20
136.508
 11
89.5365
 21
136.573
  0
LINE
  8
0
 10
89.5365
 20
136.573
 11
89.25
 21
136.701
  0
LINE
  8
0
 10
89.25
 20
136.701
 11
88.9963
 21
136.885
  0
LINE
  8
0
 10
88.9963
 20
136.885
 11
88.7865
 21
137.118
  0
LINE
  8
0
 10
88.7865
 20
137.118
 11
88.6297
 21
137.39
  0
LINE
  8
0
 10
88.6297
 20
137.39
 11
88.5328
 21
137.688
  0
LINE
  8
0
 10
88.5328
 20
137.688
 11
88.5
 21
138
  0
LINE
  8
0
 10
88.5
 20
138
 11
88.5328
 21
138.312
  0
LINE
  8
0
 10
88.5328
 20
138.312
 11
88.6297
 21
138.61
  0
LINE
  8
0
 10
88.6297
 20
138.61
 11
88.7865
 21
138.882
  0
LINE
  8
0
 10
88.7865
 20
138.882
 11
88.9963
 21
139.115
  0
LINE
  8
0
 10
88.9963
 20
139.115
 11
89.25
 21
139.299
  0
LINE
  8
0
 10
89.25
 20
139.299
 11
89.5365
 21
139.427
  0
LINE
  8
0
 10
89.5365
 20
139.427
 11
89.8432
 21
139.492
  0
LINE
  8
0
 10
89.8432
 20
139.492
 11
90.1568
 21
139.492
  0
LINE
  8
0
 10
90.1568
 20
139.492
 11
90.4635
 21
139.427
  0
LINE
  8
0
 10
90.4635
 20
139.427
 11
90.75
 21
139.299
  0
LINE
  8
0
 10
90.75
 20
139.299
 11
91.0037
 21
139.115
  0
LINE
  8
0
 10
91.0037
 20
139.115
 11
91.2135
 21
138.882
  0
LINE
  8
0
 10
91.2135
 20
138.882
 11
91.3703
 21
138.61
  0
LINE
  8
0
 10
91.3703
 20
138.61
 11
91.4672
 21
138.312
  0
LINE
  8
0
 10
91.4672
 20
138.312
 11
91.5
 21
138
  0
LINE
  8
0
 10
91.5
 20
138
 11
91.4672
 21
137.688
  0
LINE
  8
0
 10
91.4672
 20
137.688
 11
91.3703
 21
137.39
  0
LINE
  8
0
 10
91.3703
 20
137.39
 11
91.2135
 21
137.118
  0
LINE
  8
0
 10
91.2135
 20
137.118
 11
91.0037
 21
136.885
  0
LINE
  8
0
 10
91.0037
 20
136.885
 11
90.75
 21
136.701
  0
LINE
  8
0
 10
90.75
 20
136.701
 11
90.4635
 21
136.573
  0
LINE
  8
0
 10
90.4635
 20
136.573
 11
90.1568
 21
136.508
  0
LINE
  8
0
 10
90.1568
 20
136.508
 11
89.8432
 21
136.508
  0
LINE
  8
0
 10
93.5173
 20
112.454
 11
100.517
 21
124.578
  0
LINE
  8
0
 10
100.517
 20
124.578
 11
112.642
 21
117.578
  0
LINE
  8
0
 10
112.642
 20
117.578
 11
105.642
 21
105.454
  0
LINE
  8
0
 10
105.642
 20
105.454
 11
93.5173
 21
112.454
  0
LINE
  8
0
 10
4.3432
 20
112.008
 11
4.03647
 21
112.073
  0
LINE
  8
0
 10
4.03647
 20
112.073
 11
3.75
 21
112.201
  0
LINE
  8
0
 10
3.75
 20
112.201
 11
3.49629
 21
112.385
  0
LINE
  8
0
 10
3.49629
 20
112.385
 11
3.28647
 21
112.618
  0
LINE
  8
0
 10
3.28647
 20
112.618
 11
3.12967
 21
112.89
  0
LINE
  8
0
 10
3.12967
 20
112.89
 11
3.03278
 21
113.188
  0
LINE
  8
0
 10
3.03278
 20
113.188
 11
3
 21
113.5
  0
LINE
  8
0
 10
3
 20
113.5
 11
3.03278
 21
113.812
  0
LINE
  8
0
 10
3.03278
 20
113.812
 11
3.12967
 21
114.11
  0
LINE
  8
0
 10
3.12967
 20
114.11
 11
3.28647
 21
114.382
  0
LINE
  8
0
 10
3.28647
 20
114.382
 11
3.49629
 21
114.615
  0
LINE
  8
0
 10
3.49629
 20
114.615
 11
3.75
 21
114.799
  0
LINE
  8
0
 10
3.75
 20
114.799
 11
4.03647
 21
114.927
  0
LINE
  8
0
 10
4.03647
 20
114.927
 11
4.3432
 21
114.992
  0
LINE
  8
0
 10
4.3432
 20
114.992
 11
4.65678
 21
114.992
  0
LINE
  8
0
 10
4.65678
 20
114.992
 11
4.96352
 21
114.927
  0
LINE
  8
0
 10
4.96352
 20
114.927
 11
5.25
 21
114.799
  0
LINE
  8
0
 10
5.25
 20
114.799
 11
5.50369
 21
114.615
  0
LINE
  8
0
 10
5.50369
 20
114.615
 11
5.71352
 21
114.382
  0
LINE
  8
0
 10
5.71352
 20
114.382
 11
5.87032
 21
114.11
  0
LINE
  8
0
 10
5.87032
 20
114.11
 11
5.96721
 21
113.812
  0
LINE
  8
0
 10
5.96721
 20
113.812
 11
6
 21
113.5
  0
LINE
  8
0
 10
6
 20
113.5
 11
5.96721
 21
113.188
  0
LINE
  8
0
 10
5.96721
 20
113.188
 11
5.87032
 21
112.89
  0
LINE
  8
0
 10
5.87032
 20
112.89
 11
5.71352
 21
112.618
  0
LINE
  8
0
 10
5.71352
 20
112.618
 11
5.50369
 21
112.385
  0
LINE
  8
0
 10
5.50369
 20
112.385
 11
5.25
 21
112.201
  0
LINE
  8
0
 10
5.25
 20
112.201
 11
4.96352
 21
112.073
  0
LINE
  8
0
 10
4.96352
 20
112.073
 11
4.65678
 21
112.008
  0
LINE
  8
0
 10
4.65678
 20
112.008
 11
4.3432
 21
112.008
  0
LINE
  8
0
 10
83.9923
 20
95.9559
 11
90.9923
 21
108.08
  0
LINE
  8
0
 10
90.9923
 20
108.08
 11
103.117
 21
101.08
  0
LINE
  8
0
 10
103.117
 20
101.08
 11
96.1167
 21
88.9559
  0
LINE
  8
0
 10
96.1167
 20
88.9559
 11
83.9923
 21
95.9559
  0
LINE
  8
0
 10
55.125
 20
90.225
 11
55.125
 21
104.225
  0
LINE
  8
0
 10
55.125
 20
104.225
 11
69.125
 21
104.225
  0
LINE
  8
0
 10
69.125
 20
104.225
 11
69.125
 21
90.225
  0
LINE
  8
0
 10
69.125
 20
90.225
 11
55.125
 21
90.225
  0
LINE
  8
0
 10
17.025
 20
90.225
 11
17.025
 21
104.225
  0
LINE
  8
0
 10
17.025
 20
104.225
 11
31.025
 21
104.225
  0
LINE
  8
0
 10
31.025
 20
104.225
 11
31.025
 21
90.225
  0
LINE
  8
0
 10
31.025
 20
90.225
 11
17.025
 21
90.225
  0
LINE
  8
0
 10
36.075
 20
90.225
 11
36.075
 21
104.225
  0
LINE
  8
0
 10
36.075
 20
104.225
 11
50.075
 21
104.225
  0
LINE
  8
0
 10
50.075
 20
104.225
 11
50.075
 21
90.225
  0
LINE
  8
0
 10
50.075
 20
90.225
 11
36.075
 21
90.225
  0
LINE
  8
0
 10
72.675
 20
71.175
 11
72.675
 21
85.175
  0
LINE
  8
0
 10
72.675
 20
85.175
 11
86.675
 21
85.175
  0
LINE
  8
0
 10
86.675
 20
85.175
 11
86.675
 21
71.175
  0
LINE
  8
0
 10
86.675
 20
71.175
 11
72.675
 21
71.175
  0
LINE
  8
0
 10
34.575
 20
71.175
 11
34.575
 21
85.175
  0
LINE
  8
0
 10
34.575
 20
85.175
 11
48.575
 21
85.175
  0
LINE
  8
0
 10
48.575
 20
85.175
 11
48.575
 21
71.175
  0
LINE
  8
0
 10
48.575
 20
71.175
 11
34.575
 21
71.175
  0
LINE
  8
0
 10
53.625
 20
71.175
 11
53.625
 21
85.175
  0
LINE
  8
0
 10
53.625
 20
85.175
 11
67.625
 21
85.175
  0
LINE
  8
0
 10
67.625
 20
85.175
 11
67.625
 21
71.175
  0
LINE
  8
0
 10
67.625
 20
71.175
 11
53.625
 21
71.175
  0
LINE
  8
0
 10
15.525
 20
71.175
 11
15.525
 21
85.175
  0
LINE
  8
0
 10
15.525
 20
85.175
 11
29.525
 21
85.175
  0
LINE
  8
0
 10
29.525
 20
85.175
 11
29.525
 21
71.175
  0
LINE
  8
0
 10
29.525
 20
71.175
 11
15.525
 21
71.175
  0
LINE
  8
0
 10
33.075
 20
52.125
 11
33.075
 21
66.125
  0
LINE
  8
0
 10
33.075
 20
66.125
 11
47.075
 21
66.125
  0
LINE
  8
0
 10
47.075
 20
66.125
 11
47.075
 21
52.125
  0
LINE
  8
0
 10
47.075
 20
52.125
 11
33.075
 21
52.125
  0
LINE
  8
0
 10
14.025
 20
52.125
 11
14.025
 21
66.125
  0
LINE
  8
0
 10
14.025
 20
66.125
 11
28.025
 21
66.125
  0
LINE
  8
0
 10
28.025
 20
66.125
 11
28.025
 21
52.125
  0
LINE
  8
0
 10
28.025
 20
52.125
 11
14.025
 21
52.125
  0
LINE
  8
0
 10
71.175
 20
52.125
 11
71.175
 21
66.125
  0
LINE
  8
0
 10
71.175
 20
66.125
 11
85.175
 21
66.125
  0
LINE
  8
0
 10
85.175
 20
66.125
 11
85.175
 21
52.125
  0
LINE
  8
0
 10
85.175
 20
52.125
 11
71.175
 21
52.125
  0
LINE
  8
0
 10
52.125
 20
52.125
 11
52.125
 21
66.125
  0
LINE
  8
0
 10
52.125
 20
66.125
 11
66.125
 21
66.125
  0
LINE
  8
0
 10
66.125
 20
66.125
 11
66.125
 21
52.125
  0
LINE
  8
0
 10
66.125
 20
52.125
 11
52.125
 21
52.125
  0
LINE
  8
0
 10
15.525
 20
33.075
 11
15.525
 21
47.075
  0
LINE
  8
0
 10
15.525
 20
47.075
 11
29.525
 21
47.075
  0
LINE
  8
0
 10
29.525
 20
47.075
 11
29.525
 21
33.075
  0
LINE
  8
0
 10
29.525
 20
33.075
 11
15.525
 21
33.075
  0
LINE
  8
0
 10
72.675
 20
33.075
 11
72.675
 21
47.075
  0
LINE
  8
0
 10
72.675
 20
47.075
 11
86.675
 21
47.075
  0
LINE
  8
0
 10
86.675
 20
47.075
 11
86.675
 21
33.075
  0
LINE
  8
0
 10
86.675
 20
33.075
 11
72.675
 21
33.075
  0
LINE
  8
0
 10
34.575
 20
33.075
 11
34.575
 21
47.075
  0
LINE
  8
0
 10
34.575
 20
47.075
 11
48.575
 21
47.075
  0
LINE
  8
0
 10
48.575
 20
47.075
 11
48.575
 21
33.075
  0
LINE
  8
0
 10
48.575
 20
33.075
 11
34.575
 21
33.075
  0
LINE
  8
0
 10
53.625
 20
33.075
 11
53.625
 21
47.075
  0
LINE
  8
0
 10
53.625
 20
47.075
 11
67.625
 21
47.075
  0
LINE
  8
0
 10
67.625
 20
47.075
 11
67.625
 21
33.075
  0
LINE
  8
0
 10
67.625
 20
33.075
 11
53.625
 21
33.075
  0
LINE
  8
0
 10
18.525
 20
14.025
 11
18.525
 21
28.025
  0
LINE
  8
0
 10
18.525
 20
28.025
 11
32.525
 21
28.025
  0
LINE
  8
0
 10
32.525
 20
28.025
 11
32.525
 21
14.025
  0
LINE
  8
0
 10
32.525
 20
14.025
 11
18.525
 21
14.025
  0
LINE
  8
0
 10
56.625
 20
14.025
 11
56.625
 21
28.025
  0
LINE
  8
0
 10
56.625
 20
28.025
 11
70.625
 21
28.025
  0
LINE
  8
0
 10
70.625
 20
28.025
 11
70.625
 21
14.025
  0
LINE
  8
0
 10
70.625
 20
14.025
 11
56.625
 21
14.025
  0
LINE
  8
0
 10
37.575
 20
14.025
 11
37.575
 21
28.025
  0
LINE
  8
0
 10
37.575
 20
28.025
 11
51.575
 21
28.025
  0
LINE
  8
0
 10
51.575
 20
28.025
 11
51.575
 21
14.025
  0
LINE
  8
0
 10
51.575
 20
14.025
 11
37.575
 21
14.025
  0
LINE
  8
0
 10
75.675
 20
14.025
 11
75.675
 21
28.025
  0
LINE
  8
0
 10
75.675
 20
28.025
 11
89.675
 21
28.025
  0
LINE
  8
0
 10
89.675
 20
28.025
 11
89.675
 21
14.025
  0
LINE
  8
0
 10
89.675
 20
14.025
 11
75.675
 21
14.025
  0
LINE
  8
0
 10
4.3432
 20
3.00821
 11
4.03647
 21
3.07341
  0
LINE
  8
0
 10
4.03647
 20
3.07341
 11
3.75
 21
3.20096
  0
LINE
  8
0
 10
3.75
 20
3.20096
 11
3.49629
 21
3.38527
  0
LINE
  8
0
 10
3.49629
 20
3.38527
 11
3.28647
 21
3.61832
  0
LINE
  8
0
 10
3.28647
 20
3.61832
 11
3.12967
 21
3.88989
  0
LINE
  8
0
 10
3.12967
 20
3.88989
 11
3.03278
 21
4.18813
  0
LINE
  8
0
 10
3.03278
 20
4.18813
 11
3
 21
4.5
  0
LINE
  8
0
 10
3
 20
4.5
 11
3.03278
 21
4.81186
  0
LINE
  8
0
 10
3.03278
 20
4.81186
 11
3.12967
 21
5.11009
  0
LINE
  8
0
 10
3.12967
 20
5.11009
 11
3.28647
 21
5.38167
  0
LINE
  8
0
 10
3.28647
 20
5.38167
 11
3.49629
 21
5.61472
  0
LINE
  8
0
 10
3.49629
 20
5.61472
 11
3.75
 21
5.79903
  0
LINE
  8
0
 10
3.75
 20
5.79903
 11
4.03647
 21
5.92657
  0
LINE
  8
0
 10
4.03647
 20
5.92657
 11
4.3432
 21
5.99178
  0
LINE
  8
0
 10
4.3432
 20
5.99178
 11
4.65678
 21
5.99178
  0
LINE
  8
0
 10
4.65678
 20
5.99178
 11
4.96352
 21
5.92657
  0
LINE
  8
0
 10
4.96352
 20
5.92657
 11
5.25
 21
5.79903
  0
LINE
  8
0
 10
5.25
 20
5.79903
 11
5.50369
 21
5.61472
  0
LINE
  8
0
 10
5.50369
 20
5.61472
 11
5.71352
 21
5.38167
  0
LINE
  8
0
 10
5.71352
 20
5.38167
 11
5.87032
 21
5.11009
  0
LINE
  8
0
 10
5.87032
 20
5.11009
 11
5.96721
 21
4.81186
  0
LINE
  8
0
 10
5.96721
 20
4.81186
 11
6
 21
4.5
  0
LINE
  8
0
 10
6
 20
4.5
 11
5.96721
 21
4.18813
  0
LINE
  8
0
 10
5.96721
 20
4.18813
 11
5.87032
 21
3.88989
  0
LINE
  8
0
 10
5.87032
 20
3.88989
 11
5.71352
 21
3.61832
  0
LINE
  8
0
 10
5.71352
 20
3.61832
 11
5.50369
 21
3.38527
  0
LINE
  8
0
 10
5.50369
 20
3.38527
 11
5.25
 21
3.20096
  0
LINE
  8
0
 10
5.25
 20
3.20096
 11
4.96352
 21
3.07341
  0
LINE
  8
0
 10
4.96352
 20
3.07341
 11
4.65678
 21
3.00821
  0
LINE
  8
0
 10
4.65678
 20
3.00821
 11
4.3432
 21
3.00821
  0
LINE
  8
0
 10
98.8432
 20
3.00821
 11
98.5365
 21
3.07341
  0
LINE
  8
0
 10
98.5365
 20
3.07341
 11
98.25
 21
3.20096
  0
LINE
  8
0
 10
98.25
 20
3.20096
 11
97.9963
 21
3.38527
  0
LINE
  8
0
 10
97.9963
 20
3.38527
 11
97.7865
 21
3.61832
  0
LINE
  8
0
 10
97.7865
 20
3.61832
 11
97.6297
 21
3.88989
  0
LINE
  8
0
 10
97.6297
 20
3.88989
 11
97.5328
 21
4.18813
  0
LINE
  8
0
 10
97.5328
 20
4.18813
 11
97.5
 21
4.5
  0
LINE
  8
0
 10
97.5
 20
4.5
 11
97.5328
 21
4.81186
  0
LINE
  8
0
 10
97.5328
 20
4.81186
 11
97.6297
 21
5.11009
  0
LINE
  8
0
 10
97.6297
 20
5.11009
 11
97.7865
 21
5.38167
  0
LINE
  8
0
 10
97.7865
 20
5.38167
 11
97.9963
 21
5.61472
  0
LINE
  8
0
 10
97.9963
 20
5.61472
 11
98.25
 21
5.79903
  0
LINE
  8
0
 10
98.25
 20
5.79903
 11
98.5365
 21
5.92657
  0
LINE
  8
0
 10
98.5365
 20
5.92657
 11
98.8432
 21
5.99178
  0
LINE
  8
0
 10
98.8432
 20
5.99178
 11
99.1568
 21
5.99178
  0
LINE
  8
0
 10
99.1568
 20
5.99178
 11
99.4635
 21
5.92657
  0
LINE
  8
0
 10
99.4635
 20
5.92657
 11
99.75
 21
5.79903
  0
LINE
  8
0
 10
99.75
 20
5.79903
 11
100.004
 21
5.61472
  0
LINE
  8
0
 10
100.004
 20
5.61472
 11
100.214
 21
5.38167
  0
LINE
  8
0
 10
100.214
 20
5.38167
 11
100.37
 21
5.11009
  0
LINE
  8
0
 10
100.37
 20
5.11009
 11
100.467
 21
4.81186
  0
LINE
  8
0
 10
100.467
 20
4.81186
 11
100.5
 21
4.5
  0
LINE
  8
0
 10
100.5
 20
4.5
 11
100.467
 21
4.18813
  0
LINE
  8
0
 10
100.467
 20
4.18813
 11
100.37
 21
3.88989
  0
LINE
  8
0
 10
100.37
 20
3.88989
 11
100.214
 21
3.61832
  0
LINE
  8
0
 10
100.214
 20
3.61832
 11
100.004
 21
3.38527
  0
LINE
  8
0
 10
100.004
 20
3.38527
 11
99.75
 21
3.20096
  0
LINE
  8
0
 10
99.75
 20
3.20096
 11
99.4635
 21
3.07341
  0
LINE
  8
0
 10
99.4635
 20
3.07341
 11
99.1568
 21
3.00821
  0
LINE
  8
0
 10
99.1568
 20
3.00821
 11
98.8432
 21
3.00821
  0
LINE
  8
0
 10
-10
 20
118.25
 11
-82.5574
 21
118.25
  0
LINE
  8
0
 10
-82.5574
 20
118.25
 11
-98.05
 21
145.084
  0
LINE
  8
0
 10
-98.05
 20
145.084
 11
-146.634
 21
117.034
  0
LINE
  8
0
 10
-146.634
 20
117.034
 11
-118.584
 21
68.45
  0
LINE
  8
0
 10
-118.584
 20
68.45
 11
-113.7
 21
71.2698
  0
LINE
  8
0
 10
-113.7
 20
71.2698
 11
-113.7
 21
0
  0
LINE
  8
0
 10
-113.7
 20
0
 11
-10
 21
0
  0
LINE
  8
0
 10
-10
 20
0
 11
-10
 21
118.25
  0
LINE
  8
0
 10
-100.157
 20
136.508
 11
-100.464
 21
136.573
  0
LINE
  8
0
 10
-100.464
 20
136.573
 11
-100.75
 21
136.701
  0
LINE
  8
0
 10
-100.75
 20
136.701
 11
-101.004
 21
136.885
  0
LINE
  8
0
 10
-101.004
 20
136.885
 11
-101.214
 21
137.118
  0
LINE
  8
0
 10
-101.214
 20
137.118
 11
-101.37
 21
137.39
  0
LINE
  8
0
 10
-101.37
 20
137.39
 11
-101.467
 21
137.688
  0
LINE
  8
0
 10
-101.467
 20
137.688
 11
-101.5
 21
138
  0
LINE
  8
0
 10
-101.5
 20
138
 11
-101.467
 21
138.312
  0
LINE
  8
0
 10
-101.467
 20
138.312
 11
-101.37
 21
138.61
  0
LINE
  8
0
 10
-101.37
 20
138.61
 11
-101.214
 21
138.882
  0
LINE
  8
0
 10
-101.214
 20
138.882
 11
-101.004
 21
139.115
  0
LINE
  8
0
 10
-101.004
 20
139.115
 11
-100.75
 21
139.299
  0
LINE
  8
0
 10
-100.75
 20
139.299
 11
-100.464
 21
139.427
  0
LINE
  8
0
 10
-100.464
 20
139.427
 11
-100.157
 21
139.492
  0
LINE
  8
0
 10
-100.157
 20
139.492
 11
-99.8432
 21
139.492
  0
LINE
  8
0
 10
-99.8432
 20
139.492
 11
-99.5365
 21
139.427
  0
LINE
  8
0
 10
-99.5365
 20
139.427
 11
-99.25
 21
139.299
  0
LINE
  8
0
 10
-99.25
 20
139.299
 11
-98.9963
 21
139.115
  0
LINE
  8
0
 10
-98.9963
 20
139.115
 11
-98.7865
 21
138.882
  0
LINE
  8
0
 10
-98.7865
 20
138.882
 11
-98.6297
 21
138.61
  0
LINE
  8
0
 10
-98.6297
 20
138.61
 11
-98.5328
 21
138.312
  0
LINE
  8
0
 10
-98.5328
 20
138.312
 11
-98.5
 21
138
  0
LINE
  8
0
 10
-98.5
 20
138
 11
-98.5328
 21
137.688
  0
LINE
  8
0
 10
-98.5328
 20
137.688
 11
-98.6297
 21
137.39
  0
LINE
  8
0
 10
-98.6297
 20
137.39
 11
-98.7865
 21
137.118
  0
LINE
  8
0
 10
-98.7865
 20
137.118
 11
-98.9963
 21
136.885
  0
LINE
  8
0
 10
-98.9963
 20
136.885
 11
-99.25
 21
136.701
  0
LINE
  8
0
 10
-99.25
 20
136.701
 11
-99.5365
 21
136.573
  0
LINE
  8
0
 10
-99.5365
 20
136.573
 11
-99.8432
 21
136.508
  0
LINE
  8
0
 10
-99.8432
 20
136.508
 11
-100.157
 21
136.508
  0
LINE
  8
0
 10
-122.642
 20
117.578
 11
-110.517
 21
124.578
  0
LINE
  8
0
 10
-110.517
 20
124.578
 11
-103.517
 21
112.454
  0
LINE
  8
0
 10
-103.517
 20
112.454
 11
-115.642
 21
105.454
  0
LINE
  8
0
 10
-115.642
 20
105.454
 11
-122.642
 21
117.578
  0
LINE
  8
0
 10
-14.6568
 20
112.008
 11
-14.9635
 21
112.073
  0
LINE
  8
0
 10
-14.9635
 20
112.073
 11
-15.25
 21
112.201
  0
LINE
  8
0
 10
-15.25
 20
112.201
 11
-15.5037
 21
112.385
  0
LINE
  8
0
 10
-15.5037
 20
112.385
 11
-15.7135
 21
112.618
  0
LINE
  8
0
 10
-15.7135
 20
112.618
 11
-15.8703
 21
112.89
  0
LINE
  8
0
 10
-15.8703
 20
112.89
 11
-15.9672
 21
113.188
  0
LINE
  8
0
 10
-15.9672
 20
113.188
 11
-16
 21
113.5
  0
LINE
  8
0
 10
-16
 20
113.5
 11
-15.9672
 21
113.812
  0
LINE
  8
0
 10
-15.9672
 20
113.812
 11
-15.8703
 21
114.11
  0
LINE
  8
0
 10
-15.8703
 20
114.11
 11
-15.7135
 21
114.382
  0
LINE
  8
0
 10
-15.7135
 20
114.382
 11
-15.5037
 21
114.615
  0
LINE
  8
0
 10
-15.5037
 20
114.615
 11
-15.25
 21
114.799
  0
LINE
  8
0
 10
-15.25
 20
114.799
 11
-14.9635
 21
114.927
  0
LINE
  8
0
 10
-14.9635
 20
114.927
 11
-14.6568
 21
114.992
  0
LINE
  8
0
 10
-14.6568
 20
114.992
 11
-14.3432
 21
114.992
  0
LINE
  8
0
 10
-14.3432
 20
114.992
 11
-14.0365
 21
114.927
  0
LINE
  8
0
 10
-14.0365
 20
114.927
 11
-13.75
 21
114.799
  0
LINE
  8
0
 10
-13.75
 20
114.799
 11
-13.4963
 21
114.615
  0
LINE
  8
0
 10
-13.4963
 20
114.615
 11
-13.2865
 21
114.382
  0
LINE
  8
0
 10
-13.2865
 20
114.382
 11
-13.1297
 21
114.11
  0
LINE
  8
0
 10
-13.1297
 20
114.11
 11
-13.0328
 21
113.812
  0
LINE
  8
0
 10
-13.0328
 20
113.812
 11
-13
 21
113.5
  0
LINE
  8
0
 10
-13
 20
113.5
 11
-13.0328
 21
113.188
  0
LINE
  8
0
 10
-13.0328
 20
113.188
 11
-13.1297
 21
112.89
  0
LINE
  8
0
 10
-13.1297
 20
112.89
 11
-13.2865
 21
112.618
  0
LINE
  8
0
 10
-13.2865
 20
112.618
 11
-13.4963
 21
112.385
  0
LINE
  8
0
 10
-13.4963
 20
112.385
 11
-13.75
 21
112.201
  0
LINE
  8
0
 10
-13.75
 20
112.201
 11
-14.0365
 21
112.073
  0
LINE
  8
0
 10
-14.0365
 20
112.073
 11
-14.3432
 21
112.008
  0
LINE
  8
0
 10
-14.3432
 20
112.008
 11
-14.6568
 21
112.008
  0
LINE
  8
0
 10
-113.117
 20
101.08
 11
-100.992
 21
108.08
  0
LINE
  8
0
 10
-100.992
 20
108.08
 11
-93.9923
 21
95.9559
  0
LINE
  8
0
 10
-93.9923
 20
95.9559
 11
-106.117
 21
88.9559
  0
LINE
  8
0
 10
-106.117
 20
88.9559
 11
-113.117
 21
101.08
  0
LINE
  8
0
 10
-79.125
 20
90.225
 11
-79.125
 21
104.225
  0
LINE
  8
0
 10
-79.125
 20
104.225
 11
-65.125
 21
104.225
  0
LINE
  8
0
 10
-65.125
 20
104.225
 11
-65.125
 21
90.225
  0
LINE
  8
0
 10
-65.125
 20
90.225
 11
-79.125
 21
90.225
  0
LINE
  8
0
 10
-41.025
 20
90.225
 11
-41.025
 21
104.225
  0
LINE
  8
0
 10
-41.025
 20
104.225
 11
-27.025
 21
104.225
  0
LINE
  8
0
 10
-27.025
 20
104.225
 11
-27.025
 21
90.225
  0
LINE
  8
0
 10
-27.025
 20
90.225
 11
-41.025
 21
90.225
  0
LINE
  8
0
 10
-60.075
 20
90.225
 11
-60.075
 21
104.225
  0
LINE
  8
0
 10
-60.075
 20
104.225
 11
-46.075
 21
104.225
  0
LINE
  8
0
 10
-46.075
 20
104.225
 11
-46.075
 21
90.225
  0
LINE
  8
0
 10
-46.075
 20
90.225
 11
-60.075
 21
90.225
  0
LINE
  8
0
 10
-77.625
 20
71.175
 11
-77.625
 21
85.175
  0
LINE
  8
0
 10
-77.625
 20
85.175
 11
-63.625
 21
85.175
  0
LINE
  8
0
 10
-63.625
 20
85.175
 11
-63.625
 21
71.175
  0
LINE
  8
0
 10
-63.625
 20
71.175
 11
-77.625
 21
71.175
  0
LINE
  8
0
 10
-58.575
 20
71.175
 11
-58.575
 21
85.175
  0
LINE
  8
0
 10
-58.575
 20
85.175
 11
-44.575
 21
85.175
  0
LINE
  8
0
 10
-44.575
 20
85.175
 11
-44.575
 21
71.175
  0
LINE
  8
0
 10
-44.575
 20
71.175
 11
-58.575
 21
71.175
  0
LINE
  8
0
 10
-39.525
 20
71.175
 11
-39.525
 21
85.175
  0
LINE
  8
0
 10
-39.525
 20
85.175
 11
-25.525
 21
85.175
  0
LINE
  8
0
 10
-25.525
 20
85.175
 11
-25.525
 21
71.175
  0
LINE
  8
0
 10
-25.525
 20
71.175
 11
-39.525
 21
71.175
  0
LINE
  8
0
 10
-96.675
 20
71.175
 11
-96.675
 21
85.175
  0
LINE
  8
0
 10
-96.675
 20
85.175
 11
-82.675
 21
85.175
  0
LINE
  8
0
 10
-82.675
 20
85.175
 11
-82.675
 21
71.175
  0
LINE
  8
0
 10
-82.675
 20
71.175
 11
-96.675
 21
71.175
  0
LINE
  8
0
 10
-76.125
 20
52.125
 11
-76.125
 21
66.125
  0
LINE
  8
0
 10
-76.125
 20
66.125
 11
-62.125
 21
66.125
  0
LINE
  8
0
 10
-62.125
 20
66.125
 11
-62.125
 21
52.125
  0
LINE
  8
0
 10
-62.125
 20
52.125
 11
-76.125
 21
52.125
  0
LINE
  8
0
 10
-95.175
 20
52.125
 11
-95.175
 21
66.125
  0
LINE
  8
0
 10
-95.175
 20
66.125
 11
-81.175
 21
66.125
  0
LINE
  8
0
 10
-81.175
 20
66.125
 11
-81.175
 21
52.125
  0
LINE
  8
0
 10
-81.175
 20
52.125
 11
-95.175
 21
52.125
  0
LINE
  8
0
 10
-38.025
 20
52.125
 11
-38.025
 21
66.125
  0
LINE
  8
0
 10
-38.025
 20
66.125
 11
-24.025
 21
66.125
  0
LINE
  8
0
 10
-24.025
 20
66.125
 11
-24.025
 21
52.125
  0
LINE
  8
0
 10
-24.025
 20
52.125
 11
-38.025
 21
52.125
  0
LINE
  8
0
 10
-57.075
 20
52.125
 11
-57.075
 21
66.125
  0
LINE
  8
0
 10
-57.075
 20
66.125
 11
-43.075
 21
66.125
  0
LINE
  8
0
 10
-43.075
 20
66.125
 11
-43.075
 21
52.125
  0
LINE
  8
0
 10
-43.075
 20
52.125
 11
-57.075
 21
52.125
  0
LINE
  8
0
 10
-96.675
 20
33.075
 11
-96.675
 21
47.075
  0
LINE
  8
0
 10
-96.675
 20
47.075
 11
-82.675
 21
47.075
  0
LINE
  8
0
 10
-82.675
 20
47.075
 11
-82.675
 21
33.075
  0
LINE
  8
0
 10
-82.675
 20
33.075
 11
-96.675
 21
33.075
  0
LINE
  8
0
 10
-39.525
 20
33.075
 11
-39.525
 21
47.075
  0
LINE
  8
0
 10
-39.525
 20
47.075
 11
-25.525
 21
47.075
  0
LINE
  8
0
 10
-25.525
 20
47.075
 11
-25.525
 21
33.075
  0
LINE
  8
0
 10
-25.525
 20
33.075
 11
-39.525
 21
33.075
  0
LINE
  8
0
 10
-58.575
 20
33.075
 11
-58.575
 21
47.075
  0
LINE
  8
0
 10
-58.575
 20
47.075
 11
-44.575
 21
47.075
  0
LINE
  8
0
 10
-44.575
 20
47.075
 11
-44.575
 21
33.075
  0
LINE
  8
0
 10
-44.575
 20
33.075
 11
-58.575
 21
33.075
  0
LINE
  8
0
 10
-77.625
 20
33.075
 11
-77.625
 21
47.075
  0
LINE
  8
0
 10
-77.625
 20
47.075
 11
-63.625
 21
47.075
  0
LINE
  8
0
 10
-63.625
 20
47.075
 11
-63.625
 21
33.075
  0
LINE
  8
0
 10
-63.625
 20
33.075
 11
-77.625
 21
33.075
  0
LINE
  8
0
 10
-42.525
 20
14.025
 11
-42.525
 21
28.025
  0
LINE
  8
0
 10
-42.525
 20
28.025
 11
-28.525
 21
28.025
  0
LINE
  8
0
 10
-28.525
 20
28.025
 11
-28.525
 21
14.025
  0
LINE
  8
0
 10
-28.525
 20
14.025
 11
-42.525
 21
14.025
  0
LINE
  8
0
 10
-80.625
 20
14.025
 11
-80.625
 21
28.025
  0
LINE
  8
0
 10
-80.625
 20
28.025
 11
-66.625
 21
28.025
  0
LINE
  8
0
 10
-66.625
 20
28.025
 11
-66.625
 21
14.025
  0
LINE
  8
0
 10
-66.625
 20
14.025
 11
-80.625
 21
14.025
  0
LINE
  8
0
 10
-99.675
 20
14.025
 11
-99.675
 21
28.025
  0
LINE
  8
0
 10
-99.675
 20
28.025
 11
-85.675
 21
28.025
  0
LINE
  8
0
 10
-85.675
 20
28.025
 11
-85.675
 21
14.025
  0
LINE
  8
0
 10
-85.675
 20
14.025
 11
-99.675
 21
14.025
  0
LINE
  8
0
 10
-61.575
 20
14.025
 11
-61.575
 21
28.025
  0
LINE
  8
0
 10
-61.575
 20
28.025
 11
-47.575
 21
28.025
  0
LINE
  8
0
 10
-47.575
 20
28.025
 11
-47.575
 21
14.025
  0
LINE
  8
0
 10
-47.575
 20
14.025
 11
-61.575
 21
14.025
  0
LINE
  8
0
 10
-14.6568
 20
3.00821
 11
-14.9635
 21
3.07341
  0
LINE
  8
0
 10
-14.9635
 20
3.07341
 11
-15.25
 21
3.20096
  0
LINE
  8
0
 10
-15.25
 20
3.20096
 11
-15.5037
 21
3.38527
  0
LINE
  8
0
 10
-15.5037
 20
3.38527
 11
-15.7135
 21
3.61832
  0
LINE
  8
0
 10
-15.7135
 20
3.61832
 11
-15.8703
 21
3.88989
  0
LINE
  8
0
 10
-15.8703
 20
3.88989
 11
-15.9672
 21
4.18813
  0
LINE
  8
0
 10
-15.9672
 20
4.18813
 11
-16
 21
4.5
  0
LINE
  8
0
 10
-16
 20
4.5
 11
-15.9672
 21
4.81186
  0
LINE
  8
0
 10
-15.9672
 20
4.81186
 11
-15.8703
 21
5.11009
  0
LINE
  8
0
 10
-15.8703
 20
5.11009
 11
-15.7135
 21
5.38167
  0
LINE
  8
0
 10
-15.7135
 20
5.38167
 11
-15.5037
 21
5.61472
  0
LINE
  8
0
 10
-15.5037
 20
5.61472
 11
-15.25
 21
5.79903
  0
LINE
  8
0
 10
-15.25
 20
5.79903
 11
-14.9635
 21
5.92657
  0
LINE
  8
0
 10
-14.9635
 20
5.92657
 11
-14.6568
 21
5.99178
  0
LINE
  8
0
 10
-14.6568
 20
5.99178
 11
-14.3432
 21
5.99178
  0
LINE
  8
0
 10
-14.3432
 20
5.99178
 11
-14.0365
 21
5.92657
  0
LINE
  8
0
 10
-14.0365
 20
5.92657
 11
-13.75
 21
5.79903
  0
LINE
  8
0
 10
-13.75
 20
5.79903
 11
-13.4963
 21
5.61472
  0
LINE
  8
0
 10
-13.4963
 20
5.61472
 11
-13.2865
 21
5.38167
  0
LINE
  8
0
 10
-13.2865
 20
5.38167
 11
-13.1297
 21
5.11009
  0
LINE
  8
0
 10
-13.1297
 20
5.11009
 11
-13.0328
 21
4.81186
  0
LINE
  8
0
 10
-13.0328
 20
4.81186
 11
-13
 21
4.5
  0
LINE
  8
0
 10
-13
 20
4.5
 11
-13.0328
 21
4.18813
  0
LINE
  8
0
 10
-13.0328
 20
4.18813
 11
-13.1297
 21
3.88989
  0
LINE
  8
0
 10
-13.1297
 20
3.88989
 11
-13.2865
 21
3.61832
  0
LINE
  8
0
 10
-13.2865
 20
3.61832
 11
-13.4963
 21
3.38527
  0
LINE
  8
0
 10
-13.4963
 20
3.38527
 11
-13.75
 21
3.20096
  0
LINE
  8
0
 10
-13.75
 20
3.20096
 11
-14.0365
 21
3.07341
  0
LINE
  8
0
 10
-14.0365
 20
3.07341
 11
-14.3432
 21
3.00821
  0
LINE
  8
0
 10
-14.3432
 20
3.00821
 11
-14.6568
 21
3.00821
  0
LINE
  8
0
 10
-109.157
 20
3.00821
 11
-109.464
 21
3.07341
  0
LINE
  8
0
 10
-109.464
 20
3.07341
 11
-109.75
 21
3.20096
  0
LINE
  8
0
 10
-109.75
 20
3.20096
 11
-110.004
 21
3.38527
  0
LINE
  8
0
 10
-110.004
 20
3.38527
 11
-110.214
 21
3.61832
  0
LINE
  8
0
 10
-110.214
 20
3.61832
 11
-110.37
 21
3.88989
  0
LINE
  8
0
 10
-110.37
 20
3.88989
 11
-110.467
 21
4.18813
  0
LINE
  8
0
 10
-110.467
 20
4.18813
 11
-110.5
 21
4.5
  0
LINE
  8
0
 10
-110.5
 20
4.5
 11
-110.467
 21
4.81186
  0
LINE
  8
0
 10
-110.467
 20
4.81186
 11
-110.37
 21
5.11009
  0
LINE
  8
0
 10
-110.37
 20
5.11009
 11
-110.214
 21
5.38167
  0
LINE
  8
0
 10
-110.214
 20
5.38167
 11
-110.004
 21
5.61472
  0
LINE
  8
0
 10
-110.004
 20
5.61472
 11
-109.75
 21
5.79903
  0
LINE
  8
0
 10
-109.75
 20
5.79903
 11
-109.464
 21
5.92657
  0
LINE
  8
0
 10
-109.464
 20
5.92657
 11
-109.157
 21
5.99178
  0
LINE
  8
0
 10
-109.157
 20
5.99178
 11
-108.843
 21
5.99178
  0
LINE
  8
0
 10
-108.843
 20
5.99178
 11
-108.536
 21
5.92657
  0
LINE
  8
0
 10
-108.536
 20
5.92657
 11
-108.25
 21
5.79903
  0
LINE
  8
0
 10
-108.25
 20
5.79903
 11
-107.996
 21
5.61472
  0
LINE
  8
0
 10
-107.996
 20
5.61472
 11
-107.786
 21
5.38167
  0
LINE
  8
0
 10
-107.786
 20
5.38167
 11
-107.63
 21
5.11009
  0
LINE
  8
0
 10
-107.63
 20
5.11009
 11
-107.533
 21
4.81186
  0
LINE
  8
0
 10
-107.533
 20
4.81186
 11
-107.5
 21
4.5
  0
LINE
  8
0
 10
-107.5
 20
4.5
 11
-107.533
 21
4.18813
  0
LINE
  8
0
 10
-107.533
 20
4.18813
 11
-107.63
 21
3.88989
  0
LINE
  8
0
 10
-107.63
 20
3.88989
 11
-107.786
 21
3.61832
  0
LINE
  8
0
 10
-107.786
 20
3.61832
 11
-107.996
 21
3.38527
  0
LINE
  8
0
 10
-107.996
 20
3.38527
 11
-108.25
 21
3.20096
  0
LINE
  8
0
 10
-108.25
 20
3.20096
 11
-108.536
 21
3.07341
  0
LINE
  8
0
 10
-108.536
 20
3.07341
 11
-108.843
 21
3.00821
  0
LINE
  8
0
 10
-108.843
 20
3.00821
 11
-109.157
 21
3.00821
  0
ENDSEC
  0
SECTION
  2
OBJECTS
  0
DICTIONARY
  0
ENDSEC
  0
EOF
