  0
SECTION
  2
BLOCKS
  0
ENDSEC
  0
SECTION
  2
ENTITIES
  0
LINE
  8
0
 10
-10
 20
353
 11
-16.5
 21
353
  0
LINE
  8
0
 10
-16.5
 20
353
 11
-16.5
 21
344.6
  0
LINE
  8
0
 10
-16.5
 20
344.6
 11
-18
 21
344.6
  0
LINE
  8
0
 10
-18
 20
344.6
 11
-18
 21
325.55
  0
LINE
  8
0
 10
-18
 20
325.55
 11
-21
 21
325.55
  0
LINE
  8
0
 10
-21
 20
325.55
 11
-21
 21
306.5
  0
LINE
  8
0
 10
-21
 20
306.5
 11
-107.2
 21
306.5
  0
LINE
  8
0
 10
-107.2
 20
306.5
 11
-107.2
 21
335.55
  0
LINE
  8
0
 10
-107.2
 20
335.55
 11
-104.2
 21
335.55
  0
LINE
  8
0
 10
-104.2
 20
335.55
 11
-104.2
 21
354.6
  0
LINE
  8
0
 10
-104.2
 20
354.6
 11
-102.7
 21
354.6
  0
LINE
  8
0
 10
-102.7
 20
354.6
 11
-102.7
 21
363.65
  0
LINE
  8
0
 10
-102.7
 20
363.65
 11
-104.2
 21
363.65
  0
LINE
  8
0
 10
-104.2
 20
363.65
 11
-104.2
 21
381.373
  0
LINE
  8
0
 10
-104.2
 20
381.373
 11
-108.871
 21
378.677
  0
LINE
  8
0
 10
-108.871
 20
378.677
 11
-132.921
 21
420.332
  0
LINE
  8
0
 10
-132.921
 20
420.332
 11
-107.763
 21
434.857
  0
LINE
  8
0
 10
-107.763
 20
434.857
 11
-93.4115
 21
410
  0
LINE
  8
0
 10
-93.4115
 20
410
 11
-86.65
 21
410
  0
LINE
  8
0
 10
-86.65
 20
410
 11
-86.65
 21
411.75
  0
LINE
  8
0
 10
-86.65
 20
411.75
 11
-19.5
 21
411.75
  0
LINE
  8
0
 10
-19.5
 20
411.75
 11
-19.5
 21
394.5
  0
LINE
  8
0
 10
-19.5
 20
394.5
 11
-10
 21
394.5
  0
LINE
  8
0
 10
-10
 20
394.5
 11
-10
 21
418.25
  0
LINE
  8
0
 10
-10
 20
418.25
 11
-82.5574
 21
418.25
  0
LINE
  8
0
 10
-82.5574
 20
418.25
 11
-98.05
 21
445.084
  0
LINE
  8
0
 10
-98.05
 20
445.084
 11
-146.634
 21
417.034
  0
LINE
  8
0
 10
-146.634
 20
417.034
 11
-118.584
 21
368.45
  0
LINE
  8
0
 10
-118.584
 20
368.45
 11
-113.7
 21
371.27
  0
LINE
  8
0
 10
-113.7
 20
371.27
 11
-113.7
 21
300
  0
LINE
  8
0
 10
-113.7
 20
300
 11
-10
 21
300
  0
LINE
  8
0
 10
-10
 20
300
 11
-10
 21
353
  0
LINE
  8
0
 10
-100.157
 20
436.508
 11
-100.464
 21
436.573
  0
LINE
  8
0
 10
-100.464
 20
436.573
 11
-100.75
 21
436.701
  0
LINE
  8
0
 10
-100.75
 20
436.701
 11
-101.004
 21
436.885
  0
LINE
  8
0
 10
-101.004
 20
436.885
 11
-101.214
 21
437.118
  0
LINE
  8
0
 10
-101.214
 20
437.118
 11
-101.37
 21
437.39
  0
LINE
  8
0
 10
-101.37
 20
437.39
 11
-101.467
 21
437.688
  0
LINE
  8
0
 10
-101.467
 20
437.688
 11
-101.5
 21
438
  0
LINE
  8
0
 10
-101.5
 20
438
 11
-101.467
 21
438.312
  0
LINE
  8
0
 10
-101.467
 20
438.312
 11
-101.37
 21
438.61
  0
LINE
  8
0
 10
-101.37
 20
438.61
 11
-101.214
 21
438.882
  0
LINE
  8
0
 10
-101.214
 20
438.882
 11
-101.004
 21
439.115
  0
LINE
  8
0
 10
-101.004
 20
439.115
 11
-100.75
 21
439.299
  0
LINE
  8
0
 10
-100.75
 20
439.299
 11
-100.464
 21
439.427
  0
LINE
  8
0
 10
-100.464
 20
439.427
 11
-100.157
 21
439.492
  0
LINE
  8
0
 10
-100.157
 20
439.492
 11
-99.8432
 21
439.492
  0
LINE
  8
0
 10
-99.8432
 20
439.492
 11
-99.5365
 21
439.427
  0
LINE
  8
0
 10
-99.5365
 20
439.427
 11
-99.25
 21
439.299
  0
LINE
  8
0
 10
-99.25
 20
439.299
 11
-98.9963
 21
439.115
  0
LINE
  8
0
 10
-98.9963
 20
439.115
 11
-98.7865
 21
438.882
  0
LINE
  8
0
 10
-98.7865
 20
438.882
 11
-98.6297
 21
438.61
  0
LINE
  8
0
 10
-98.6297
 20
438.61
 11
-98.5328
 21
438.312
  0
LINE
  8
0
 10
-98.5328
 20
438.312
 11
-98.5
 21
438
  0
LINE
  8
0
 10
-98.5
 20
438
 11
-98.5328
 21
437.688
  0
LINE
  8
0
 10
-98.5328
 20
437.688
 11
-98.6297
 21
437.39
  0
LINE
  8
0
 10
-98.6297
 20
437.39
 11
-98.7865
 21
437.118
  0
LINE
  8
0
 10
-98.7865
 20
437.118
 11
-98.9963
 21
436.885
  0
LINE
  8
0
 10
-98.9963
 20
436.885
 11
-99.25
 21
436.701
  0
LINE
  8
0
 10
-99.25
 20
436.701
 11
-99.5365
 21
436.573
  0
LINE
  8
0
 10
-99.5365
 20
436.573
 11
-99.8432
 21
436.508
  0
LINE
  8
0
 10
-99.8432
 20
436.508
 11
-100.157
 21
436.508
  0
LINE
  8
0
 10
-14.6568
 20
412.008
 11
-14.9635
 21
412.073
  0
LINE
  8
0
 10
-14.9635
 20
412.073
 11
-15.25
 21
412.201
  0
LINE
  8
0
 10
-15.25
 20
412.201
 11
-15.5037
 21
412.385
  0
LINE
  8
0
 10
-15.5037
 20
412.385
 11
-15.7135
 21
412.618
  0
LINE
  8
0
 10
-15.7135
 20
412.618
 11
-15.8703
 21
412.89
  0
LINE
  8
0
 10
-15.8703
 20
412.89
 11
-15.9672
 21
413.188
  0
LINE
  8
0
 10
-15.9672
 20
413.188
 11
-16
 21
413.5
  0
LINE
  8
0
 10
-16
 20
413.5
 11
-15.9672
 21
413.812
  0
LINE
  8
0
 10
-15.9672
 20
413.812
 11
-15.8703
 21
414.11
  0
LINE
  8
0
 10
-15.8703
 20
414.11
 11
-15.7135
 21
414.382
  0
LINE
  8
0
 10
-15.7135
 20
414.382
 11
-15.5037
 21
414.615
  0
LINE
  8
0
 10
-15.5037
 20
414.615
 11
-15.25
 21
414.799
  0
LINE
  8
0
 10
-15.25
 20
414.799
 11
-14.9635
 21
414.927
  0
LINE
  8
0
 10
-14.9635
 20
414.927
 11
-14.6568
 21
414.992
  0
LINE
  8
0
 10
-14.6568
 20
414.992
 11
-14.3432
 21
414.992
  0
LINE
  8
0
 10
-14.3432
 20
414.992
 11
-14.0365
 21
414.927
  0
LINE
  8
0
 10
-14.0365
 20
414.927
 11
-13.75
 21
414.799
  0
LINE
  8
0
 10
-13.75
 20
414.799
 11
-13.4963
 21
414.615
  0
LINE
  8
0
 10
-13.4963
 20
414.615
 11
-13.2865
 21
414.382
  0
LINE
  8
0
 10
-13.2865
 20
414.382
 11
-13.1297
 21
414.11
  0
LINE
  8
0
 10
-13.1297
 20
414.11
 11
-13.0328
 21
413.812
  0
LINE
  8
0
 10
-13.0328
 20
413.812
 11
-13
 21
413.5
  0
LINE
  8
0
 10
-13
 20
413.5
 11
-13.0328
 21
413.188
  0
LINE
  8
0
 10
-13.0328
 20
413.188
 11
-13.1297
 21
412.89
  0
LINE
  8
0
 10
-13.1297
 20
412.89
 11
-13.2865
 21
412.618
  0
LINE
  8
0
 10
-13.2865
 20
412.618
 11
-13.4963
 21
412.385
  0
LINE
  8
0
 10
-13.4963
 20
412.385
 11
-13.75
 21
412.201
  0
LINE
  8
0
 10
-13.75
 20
412.201
 11
-14.0365
 21
412.073
  0
LINE
  8
0
 10
-14.0365
 20
412.073
 11
-14.3432
 21
412.008
  0
LINE
  8
0
 10
-14.3432
 20
412.008
 11
-14.6568
 21
412.008
  0
LINE
  8
0
 10
-14.6568
 20
303.008
 11
-14.9635
 21
303.073
  0
LINE
  8
0
 10
-14.9635
 20
303.073
 11
-15.25
 21
303.201
  0
LINE
  8
0
 10
-15.25
 20
303.201
 11
-15.5037
 21
303.385
  0
LINE
  8
0
 10
-15.5037
 20
303.385
 11
-15.7135
 21
303.618
  0
LINE
  8
0
 10
-15.7135
 20
303.618
 11
-15.8703
 21
303.89
  0
LINE
  8
0
 10
-15.8703
 20
303.89
 11
-15.9672
 21
304.188
  0
LINE
  8
0
 10
-15.9672
 20
304.188
 11
-16
 21
304.5
  0
LINE
  8
0
 10
-16
 20
304.5
 11
-15.9672
 21
304.812
  0
LINE
  8
0
 10
-15.9672
 20
304.812
 11
-15.8703
 21
305.11
  0
LINE
  8
0
 10
-15.8703
 20
305.11
 11
-15.7135
 21
305.382
  0
LINE
  8
0
 10
-15.7135
 20
305.382
 11
-15.5037
 21
305.615
  0
LINE
  8
0
 10
-15.5037
 20
305.615
 11
-15.25
 21
305.799
  0
LINE
  8
0
 10
-15.25
 20
305.799
 11
-14.9635
 21
305.927
  0
LINE
  8
0
 10
-14.9635
 20
305.927
 11
-14.6568
 21
305.992
  0
LINE
  8
0
 10
-14.6568
 20
305.992
 11
-14.3432
 21
305.992
  0
LINE
  8
0
 10
-14.3432
 20
305.992
 11
-14.0365
 21
305.927
  0
LINE
  8
0
 10
-14.0365
 20
305.927
 11
-13.75
 21
305.799
  0
LINE
  8
0
 10
-13.75
 20
305.799
 11
-13.4963
 21
305.615
  0
LINE
  8
0
 10
-13.4963
 20
305.615
 11
-13.2865
 21
305.382
  0
LINE
  8
0
 10
-13.2865
 20
305.382
 11
-13.1297
 21
305.11
  0
LINE
  8
0
 10
-13.1297
 20
305.11
 11
-13.0328
 21
304.812
  0
LINE
  8
0
 10
-13.0328
 20
304.812
 11
-13
 21
304.5
  0
LINE
  8
0
 10
-13
 20
304.5
 11
-13.0328
 21
304.188
  0
LINE
  8
0
 10
-13.0328
 20
304.188
 11
-13.1297
 21
303.89
  0
LINE
  8
0
 10
-13.1297
 20
303.89
 11
-13.2865
 21
303.618
  0
LINE
  8
0
 10
-13.2865
 20
303.618
 11
-13.4963
 21
303.385
  0
LINE
  8
0
 10
-13.4963
 20
303.385
 11
-13.75
 21
303.201
  0
LINE
  8
0
 10
-13.75
 20
303.201
 11
-14.0365
 21
303.073
  0
LINE
  8
0
 10
-14.0365
 20
303.073
 11
-14.3432
 21
303.008
  0
LINE
  8
0
 10
-14.3432
 20
303.008
 11
-14.6568
 21
303.008
  0
LINE
  8
0
 10
-109.157
 20
303.008
 11
-109.464
 21
303.073
  0
LINE
  8
0
 10
-109.464
 20
303.073
 11
-109.75
 21
303.201
  0
LINE
  8
0
 10
-109.75
 20
303.201
 11
-110.004
 21
303.385
  0
LINE
  8
0
 10
-110.004
 20
303.385
 11
-110.214
 21
303.618
  0
LINE
  8
0
 10
-110.214
 20
303.618
 11
-110.37
 21
303.89
  0
LINE
  8
0
 10
-110.37
 20
303.89
 11
-110.467
 21
304.188
  0
LINE
  8
0
 10
-110.467
 20
304.188
 11
-110.5
 21
304.5
  0
LINE
  8
0
 10
-110.5
 20
304.5
 11
-110.467
 21
304.812
  0
LINE
  8
0
 10
-110.467
 20
304.812
 11
-110.37
 21
305.11
  0
LINE
  8
0
 10
-110.37
 20
305.11
 11
-110.214
 21
305.382
  0
LINE
  8
0
 10
-110.214
 20
305.382
 11
-110.004
 21
305.615
  0
LINE
  8
0
 10
-110.004
 20
305.615
 11
-109.75
 21
305.799
  0
LINE
  8
0
 10
-109.75
 20
305.799
 11
-109.464
 21
305.927
  0
LINE
  8
0
 10
-109.464
 20
305.927
 11
-109.157
 21
305.992
  0
LINE
  8
0
 10
-109.157
 20
305.992
 11
-108.843
 21
305.992
  0
LINE
  8
0
 10
-108.843
 20
305.992
 11
-108.536
 21
305.927
  0
LINE
  8
0
 10
-108.536
 20
305.927
 11
-108.25
 21
305.799
  0
LINE
  8
0
 10
-108.25
 20
305.799
 11
-107.996
 21
305.615
  0
LINE
  8
0
 10
-107.996
 20
305.615
 11
-107.786
 21
305.382
  0
LINE
  8
0
 10
-107.786
 20
305.382
 11
-107.63
 21
305.11
  0
LINE
  8
0
 10
-107.63
 20
305.11
 11
-107.533
 21
304.812
  0
LINE
  8
0
 10
-107.533
 20
304.812
 11
-107.5
 21
304.5
  0
LINE
  8
0
 10
-107.5
 20
304.5
 11
-107.533
 21
304.188
  0
LINE
  8
0
 10
-107.533
 20
304.188
 11
-107.63
 21
303.89
  0
LINE
  8
0
 10
-107.63
 20
303.89
 11
-107.786
 21
303.618
  0
LINE
  8
0
 10
-107.786
 20
303.618
 11
-107.996
 21
303.385
  0
LINE
  8
0
 10
-107.996
 20
303.385
 11
-108.25
 21
303.201
  0
LINE
  8
0
 10
-108.25
 20
303.201
 11
-108.536
 21
303.073
  0
LINE
  8
0
 10
-108.536
 20
303.073
 11
-108.843
 21
303.008
  0
LINE
  8
0
 10
-108.843
 20
303.008
 11
-109.157
 21
303.008
  0
LINE
  8
0
 10
103.7
 20
371.27
 11
108.584
 21
368.45
  0
LINE
  8
0
 10
108.584
 20
368.45
 11
136.634
 21
417.034
  0
LINE
  8
0
 10
136.634
 20
417.034
 11
88.05
 21
445.084
  0
LINE
  8
0
 10
88.05
 20
445.084
 11
72.5574
 21
418.25
  0
LINE
  8
0
 10
72.5574
 20
418.25
 11
0
 21
418.25
  0
LINE
  8
0
 10
0
 20
418.25
 11
0
 21
394.5
  0
LINE
  8
0
 10
0
 20
394.5
 11
9.5
 21
394.5
  0
LINE
  8
0
 10
9.5
 20
394.5
 11
9.5
 21
411.75
  0
LINE
  8
0
 10
9.5
 20
411.75
 11
76.65
 21
411.75
  0
LINE
  8
0
 10
76.65
 20
411.75
 11
76.65
 21
410
  0
LINE
  8
0
 10
76.65
 20
410
 11
83.4115
 21
410
  0
LINE
  8
0
 10
83.4115
 20
410
 11
97.763
 21
434.857
  0
LINE
  8
0
 10
97.763
 20
434.857
 11
122.921
 21
420.332
  0
LINE
  8
0
 10
122.921
 20
420.332
 11
98.871
 21
378.677
  0
LINE
  8
0
 10
98.871
 20
378.677
 11
94.2
 21
381.373
  0
LINE
  8
0
 10
94.2
 20
381.373
 11
94.2
 21
363.65
  0
LINE
  8
0
 10
94.2
 20
363.65
 11
92.7
 21
363.65
  0
LINE
  8
0
 10
92.7
 20
363.65
 11
92.7
 21
354.6
  0
LINE
  8
0
 10
92.7
 20
354.6
 11
94.2
 21
354.6
  0
LINE
  8
0
 10
94.2
 20
354.6
 11
94.2
 21
335.55
  0
LINE
  8
0
 10
94.2
 20
335.55
 11
97.2
 21
335.55
  0
LINE
  8
0
 10
97.2
 20
335.55
 11
97.2
 21
306.5
  0
LINE
  8
0
 10
97.2
 20
306.5
 11
11
 21
306.5
  0
LINE
  8
0
 10
11
 20
306.5
 11
11
 21
325.55
  0
LINE
  8
0
 10
11
 20
325.55
 11
8
 21
325.55
  0
LINE
  8
0
 10
8
 20
325.55
 11
8
 21
344.6
  0
LINE
  8
0
 10
8
 20
344.6
 11
6.5
 21
344.6
  0
LINE
  8
0
 10
6.5
 20
344.6
 11
6.5
 21
353
  0
LINE
  8
0
 10
6.5
 20
353
 11
0
 21
353
  0
LINE
  8
0
 10
0
 20
353
 11
0
 21
300
  0
LINE
  8
0
 10
0
 20
300
 11
103.7
 21
300
  0
LINE
  8
0
 10
103.7
 20
300
 11
103.7
 21
371.27
  0
LINE
  8
0
 10
89.8432
 20
436.508
 11
89.5365
 21
436.573
  0
LINE
  8
0
 10
89.5365
 20
436.573
 11
89.25
 21
436.701
  0
LINE
  8
0
 10
89.25
 20
436.701
 11
88.9963
 21
436.885
  0
LINE
  8
0
 10
88.9963
 20
436.885
 11
88.7865
 21
437.118
  0
LINE
  8
0
 10
88.7865
 20
437.118
 11
88.6297
 21
437.39
  0
LINE
  8
0
 10
88.6297
 20
437.39
 11
88.5328
 21
437.688
  0
LINE
  8
0
 10
88.5328
 20
437.688
 11
88.5
 21
438
  0
LINE
  8
0
 10
88.5
 20
438
 11
88.5328
 21
438.312
  0
LINE
  8
0
 10
88.5328
 20
438.312
 11
88.6297
 21
438.61
  0
LINE
  8
0
 10
88.6297
 20
438.61
 11
88.7865
 21
438.882
  0
LINE
  8
0
 10
88.7865
 20
438.882
 11
88.9963
 21
439.115
  0
LINE
  8
0
 10
88.9963
 20
439.115
 11
89.25
 21
439.299
  0
LINE
  8
0
 10
89.25
 20
439.299
 11
89.5365
 21
439.427
  0
LINE
  8
0
 10
89.5365
 20
439.427
 11
89.8432
 21
439.492
  0
LINE
  8
0
 10
89.8432
 20
439.492
 11
90.1568
 21
439.492
  0
LINE
  8
0
 10
90.1568
 20
439.492
 11
90.4635
 21
439.427
  0
LINE
  8
0
 10
90.4635
 20
439.427
 11
90.75
 21
439.299
  0
LINE
  8
0
 10
90.75
 20
439.299
 11
91.0037
 21
439.115
  0
LINE
  8
0
 10
91.0037
 20
439.115
 11
91.2135
 21
438.882
  0
LINE
  8
0
 10
91.2135
 20
438.882
 11
91.3703
 21
438.61
  0
LINE
  8
0
 10
91.3703
 20
438.61
 11
91.4672
 21
438.312
  0
LINE
  8
0
 10
91.4672
 20
438.312
 11
91.5
 21
438
  0
LINE
  8
0
 10
91.5
 20
438
 11
91.4672
 21
437.688
  0
LINE
  8
0
 10
91.4672
 20
437.688
 11
91.3703
 21
437.39
  0
LINE
  8
0
 10
91.3703
 20
437.39
 11
91.2135
 21
437.118
  0
LINE
  8
0
 10
91.2135
 20
437.118
 11
91.0037
 21
436.885
  0
LINE
  8
0
 10
91.0037
 20
436.885
 11
90.75
 21
436.701
  0
LINE
  8
0
 10
90.75
 20
436.701
 11
90.4635
 21
436.573
  0
LINE
  8
0
 10
90.4635
 20
436.573
 11
90.1568
 21
436.508
  0
LINE
  8
0
 10
90.1568
 20
436.508
 11
89.8432
 21
436.508
  0
LINE
  8
0
 10
4.3432
 20
412.008
 11
4.03647
 21
412.073
  0
LINE
  8
0
 10
4.03647
 20
412.073
 11
3.75
 21
412.201
  0
LINE
  8
0
 10
3.75
 20
412.201
 11
3.49629
 21
412.385
  0
LINE
  8
0
 10
3.49629
 20
412.385
 11
3.28647
 21
412.618
  0
LINE
  8
0
 10
3.28647
 20
412.618
 11
3.12967
 21
412.89
  0
LINE
  8
0
 10
3.12967
 20
412.89
 11
3.03278
 21
413.188
  0
LINE
  8
0
 10
3.03278
 20
413.188
 11
3
 21
413.5
  0
LINE
  8
0
 10
3
 20
413.5
 11
3.03278
 21
413.812
  0
LINE
  8
0
 10
3.03278
 20
413.812
 11
3.12967
 21
414.11
  0
LINE
  8
0
 10
3.12967
 20
414.11
 11
3.28647
 21
414.382
  0
LINE
  8
0
 10
3.28647
 20
414.382
 11
3.49629
 21
414.615
  0
LINE
  8
0
 10
3.49629
 20
414.615
 11
3.75
 21
414.799
  0
LINE
  8
0
 10
3.75
 20
414.799
 11
4.03647
 21
414.927
  0
LINE
  8
0
 10
4.03647
 20
414.927
 11
4.3432
 21
414.992
  0
LINE
  8
0
 10
4.3432
 20
414.992
 11
4.65678
 21
414.992
  0
LINE
  8
0
 10
4.65678
 20
414.992
 11
4.96352
 21
414.927
  0
LINE
  8
0
 10
4.96352
 20
414.927
 11
5.25
 21
414.799
  0
LINE
  8
0
 10
5.25
 20
414.799
 11
5.50369
 21
414.615
  0
LINE
  8
0
 10
5.50369
 20
414.615
 11
5.71352
 21
414.382
  0
LINE
  8
0
 10
5.71352
 20
414.382
 11
5.87032
 21
414.11
  0
LINE
  8
0
 10
5.87032
 20
414.11
 11
5.96721
 21
413.812
  0
LINE
  8
0
 10
5.96721
 20
413.812
 11
6
 21
413.5
  0
LINE
  8
0
 10
6
 20
413.5
 11
5.96721
 21
413.188
  0
LINE
  8
0
 10
5.96721
 20
413.188
 11
5.87032
 21
412.89
  0
LINE
  8
0
 10
5.87032
 20
412.89
 11
5.71352
 21
412.618
  0
LINE
  8
0
 10
5.71352
 20
412.618
 11
5.50369
 21
412.385
  0
LINE
  8
0
 10
5.50369
 20
412.385
 11
5.25
 21
412.201
  0
LINE
  8
0
 10
5.25
 20
412.201
 11
4.96352
 21
412.073
  0
LINE
  8
0
 10
4.96352
 20
412.073
 11
4.65678
 21
412.008
  0
LINE
  8
0
 10
4.65678
 20
412.008
 11
4.3432
 21
412.008
  0
LINE
  8
0
 10
4.3432
 20
303.008
 11
4.03647
 21
303.073
  0
LINE
  8
0
 10
4.03647
 20
303.073
 11
3.75
 21
303.201
  0
LINE
  8
0
 10
3.75
 20
303.201
 11
3.49629
 21
303.385
  0
LINE
  8
0
 10
3.49629
 20
303.385
 11
3.28647
 21
303.618
  0
LINE
  8
0
 10
3.28647
 20
303.618
 11
3.12967
 21
303.89
  0
LINE
  8
0
 10
3.12967
 20
303.89
 11
3.03278
 21
304.188
  0
LINE
  8
0
 10
3.03278
 20
304.188
 11
3
 21
304.5
  0
LINE
  8
0
 10
3
 20
304.5
 11
3.03278
 21
304.812
  0
LINE
  8
0
 10
3.03278
 20
304.812
 11
3.12967
 21
305.11
  0
LINE
  8
0
 10
3.12967
 20
305.11
 11
3.28647
 21
305.382
  0
LINE
  8
0
 10
3.28647
 20
305.382
 11
3.49629
 21
305.615
  0
LINE
  8
0
 10
3.49629
 20
305.615
 11
3.75
 21
305.799
  0
LINE
  8
0
 10
3.75
 20
305.799
 11
4.03647
 21
305.927
  0
LINE
  8
0
 10
4.03647
 20
305.927
 11
4.3432
 21
305.992
  0
LINE
  8
0
 10
4.3432
 20
305.992
 11
4.65678
 21
305.992
  0
LINE
  8
0
 10
4.65678
 20
305.992
 11
4.96352
 21
305.927
  0
LINE
  8
0
 10
4.96352
 20
305.927
 11
5.25
 21
305.799
  0
LINE
  8
0
 10
5.25
 20
305.799
 11
5.50369
 21
305.615
  0
LINE
  8
0
 10
5.50369
 20
305.615
 11
5.71352
 21
305.382
  0
LINE
  8
0
 10
5.71352
 20
305.382
 11
5.87032
 21
305.11
  0
LINE
  8
0
 10
5.87032
 20
305.11
 11
5.96721
 21
304.812
  0
LINE
  8
0
 10
5.96721
 20
304.812
 11
6
 21
304.5
  0
LINE
  8
0
 10
6
 20
304.5
 11
5.96721
 21
304.188
  0
LINE
  8
0
 10
5.96721
 20
304.188
 11
5.87032
 21
303.89
  0
LINE
  8
0
 10
5.87032
 20
303.89
 11
5.71352
 21
303.618
  0
LINE
  8
0
 10
5.71352
 20
303.618
 11
5.50369
 21
303.385
  0
LINE
  8
0
 10
5.50369
 20
303.385
 11
5.25
 21
303.201
  0
LINE
  8
0
 10
5.25
 20
303.201
 11
4.96352
 21
303.073
  0
LINE
  8
0
 10
4.96352
 20
303.073
 11
4.65678
 21
303.008
  0
LINE
  8
0
 10
4.65678
 20
303.008
 11
4.3432
 21
303.008
  0
LINE
  8
0
 10
98.8432
 20
303.008
 11
98.5365
 21
303.073
  0
LINE
  8
0
 10
98.5365
 20
303.073
 11
98.25
 21
303.201
  0
LINE
  8
0
 10
98.25
 20
303.201
 11
97.9963
 21
303.385
  0
LINE
  8
0
 10
97.9963
 20
303.385
 11
97.7865
 21
303.618
  0
LINE
  8
0
 10
97.7865
 20
303.618
 11
97.6297
 21
303.89
  0
LINE
  8
0
 10
97.6297
 20
303.89
 11
97.5328
 21
304.188
  0
LINE
  8
0
 10
97.5328
 20
304.188
 11
97.5
 21
304.5
  0
LINE
  8
0
 10
97.5
 20
304.5
 11
97.5328
 21
304.812
  0
LINE
  8
0
 10
97.5328
 20
304.812
 11
97.6297
 21
305.11
  0
LINE
  8
0
 10
97.6297
 20
305.11
 11
97.7865
 21
305.382
  0
LINE
  8
0
 10
97.7865
 20
305.382
 11
97.9963
 21
305.615
  0
LINE
  8
0
 10
97.9963
 20
305.615
 11
98.25
 21
305.799
  0
LINE
  8
0
 10
98.25
 20
305.799
 11
98.5365
 21
305.927
  0
LINE
  8
0
 10
98.5365
 20
305.927
 11
98.8432
 21
305.992
  0
LINE
  8
0
 10
98.8432
 20
305.992
 11
99.1568
 21
305.992
  0
LINE
  8
0
 10
99.1568
 20
305.992
 11
99.4635
 21
305.927
  0
LINE
  8
0
 10
99.4635
 20
305.927
 11
99.75
 21
305.799
  0
LINE
  8
0
 10
99.75
 20
305.799
 11
100.004
 21
305.615
  0
LINE
  8
0
 10
100.004
 20
305.615
 11
100.214
 21
305.382
  0
LINE
  8
0
 10
100.214
 20
305.382
 11
100.37
 21
305.11
  0
LINE
  8
0
 10
100.37
 20
305.11
 11
100.467
 21
304.812
  0
LINE
  8
0
 10
100.467
 20
304.812
 11
100.5
 21
304.5
  0
LINE
  8
0
 10
100.5
 20
304.5
 11
100.467
 21
304.188
  0
LINE
  8
0
 10
100.467
 20
304.188
 11
100.37
 21
303.89
  0
LINE
  8
0
 10
100.37
 20
303.89
 11
100.214
 21
303.618
  0
LINE
  8
0
 10
100.214
 20
303.618
 11
100.004
 21
303.385
  0
LINE
  8
0
 10
100.004
 20
303.385
 11
99.75
 21
303.201
  0
LINE
  8
0
 10
99.75
 20
303.201
 11
99.4635
 21
303.073
  0
LINE
  8
0
 10
99.4635
 20
303.073
 11
99.1568
 21
303.008
  0
LINE
  8
0
 10
99.1568
 20
303.008
 11
98.8432
 21
303.008
  0
LINE
  8
0
 10
-10
 20
388
 11
-18
 21
388
  0
LINE
  8
0
 10
-18
 20
388
 11
-18
 21
373.65
  0
LINE
  8
0
 10
-18
 20
373.65
 11
-16.5
 21
373.65
  0
LINE
  8
0
 10
-16.5
 20
373.65
 11
-16.5
 21
366
  0
LINE
  8
0
 10
-16.5
 20
366
 11
-10
 21
366
  0
LINE
  8
0
 10
-10
 20
366
 11
-10
 21
388
  0
LINE
  8
0
 10
6.5
 20
373.65
 11
8
 21
373.65
  0
LINE
  8
0
 10
8
 20
373.65
 11
8
 21
388
  0
LINE
  8
0
 10
8
 20
388
 11
0
 21
388
  0
LINE
  8
0
 10
0
 20
388
 11
0
 21
366
  0
LINE
  8
0
 10
0
 20
366
 11
6.5
 21
366
  0
LINE
  8
0
 10
6.5
 20
366
 11
6.5
 21
373.65
  0
LINE
  8
0
 10
-10
 20
203
 11
-16.5
 21
203
  0
LINE
  8
0
 10
-16.5
 20
203
 11
-16.5
 21
194.6
  0
LINE
  8
0
 10
-16.5
 20
194.6
 11
-18
 21
194.6
  0
LINE
  8
0
 10
-18
 20
194.6
 11
-18
 21
175.55
  0
LINE
  8
0
 10
-18
 20
175.55
 11
-21
 21
175.55
  0
LINE
  8
0
 10
-21
 20
175.55
 11
-21
 21
156.5
  0
LINE
  8
0
 10
-21
 20
156.5
 11
-107.2
 21
156.5
  0
LINE
  8
0
 10
-107.2
 20
156.5
 11
-107.2
 21
185.55
  0
LINE
  8
0
 10
-107.2
 20
185.55
 11
-104.2
 21
185.55
  0
LINE
  8
0
 10
-104.2
 20
185.55
 11
-104.2
 21
204.6
  0
LINE
  8
0
 10
-104.2
 20
204.6
 11
-102.7
 21
204.6
  0
LINE
  8
0
 10
-102.7
 20
204.6
 11
-102.7
 21
213.65
  0
LINE
  8
0
 10
-102.7
 20
213.65
 11
-104.2
 21
213.65
  0
LINE
  8
0
 10
-104.2
 20
213.65
 11
-104.2
 21
231.373
  0
LINE
  8
0
 10
-104.2
 20
231.373
 11
-108.871
 21
228.677
  0
LINE
  8
0
 10
-108.871
 20
228.677
 11
-132.921
 21
270.332
  0
LINE
  8
0
 10
-132.921
 20
270.332
 11
-107.763
 21
284.857
  0
LINE
  8
0
 10
-107.763
 20
284.857
 11
-93.4115
 21
260
  0
LINE
  8
0
 10
-93.4115
 20
260
 11
-86.65
 21
260
  0
LINE
  8
0
 10
-86.65
 20
260
 11
-86.65
 21
261.75
  0
LINE
  8
0
 10
-86.65
 20
261.75
 11
-19.5
 21
261.75
  0
LINE
  8
0
 10
-19.5
 20
261.75
 11
-19.5
 21
244.5
  0
LINE
  8
0
 10
-19.5
 20
244.5
 11
-10
 21
244.5
  0
LINE
  8
0
 10
-10
 20
244.5
 11
-10
 21
268.25
  0
LINE
  8
0
 10
-10
 20
268.25
 11
-82.5574
 21
268.25
  0
LINE
  8
0
 10
-82.5574
 20
268.25
 11
-98.05
 21
295.084
  0
LINE
  8
0
 10
-98.05
 20
295.084
 11
-146.634
 21
267.034
  0
LINE
  8
0
 10
-146.634
 20
267.034
 11
-118.584
 21
218.45
  0
LINE
  8
0
 10
-118.584
 20
218.45
 11
-113.7
 21
221.27
  0
LINE
  8
0
 10
-113.7
 20
221.27
 11
-113.7
 21
150
  0
LINE
  8
0
 10
-113.7
 20
150
 11
-10
 21
150
  0
LINE
  8
0
 10
-10
 20
150
 11
-10
 21
203
  0
LINE
  8
0
 10
-100.157
 20
286.508
 11
-100.464
 21
286.573
  0
LINE
  8
0
 10
-100.464
 20
286.573
 11
-100.75
 21
286.701
  0
LINE
  8
0
 10
-100.75
 20
286.701
 11
-101.004
 21
286.885
  0
LINE
  8
0
 10
-101.004
 20
286.885
 11
-101.214
 21
287.118
  0
LINE
  8
0
 10
-101.214
 20
287.118
 11
-101.37
 21
287.39
  0
LINE
  8
0
 10
-101.37
 20
287.39
 11
-101.467
 21
287.688
  0
LINE
  8
0
 10
-101.467
 20
287.688
 11
-101.5
 21
288
  0
LINE
  8
0
 10
-101.5
 20
288
 11
-101.467
 21
288.312
  0
LINE
  8
0
 10
-101.467
 20
288.312
 11
-101.37
 21
288.61
  0
LINE
  8
0
 10
-101.37
 20
288.61
 11
-101.214
 21
288.882
  0
LINE
  8
0
 10
-101.214
 20
288.882
 11
-101.004
 21
289.115
  0
LINE
  8
0
 10
-101.004
 20
289.115
 11
-100.75
 21
289.299
  0
LINE
  8
0
 10
-100.75
 20
289.299
 11
-100.464
 21
289.427
  0
LINE
  8
0
 10
-100.464
 20
289.427
 11
-100.157
 21
289.492
  0
LINE
  8
0
 10
-100.157
 20
289.492
 11
-99.8432
 21
289.492
  0
LINE
  8
0
 10
-99.8432
 20
289.492
 11
-99.5365
 21
289.427
  0
LINE
  8
0
 10
-99.5365
 20
289.427
 11
-99.25
 21
289.299
  0
LINE
  8
0
 10
-99.25
 20
289.299
 11
-98.9963
 21
289.115
  0
LINE
  8
0
 10
-98.9963
 20
289.115
 11
-98.7865
 21
288.882
  0
LINE
  8
0
 10
-98.7865
 20
288.882
 11
-98.6297
 21
288.61
  0
LINE
  8
0
 10
-98.6297
 20
288.61
 11
-98.5328
 21
288.312
  0
LINE
  8
0
 10
-98.5328
 20
288.312
 11
-98.5
 21
288
  0
LINE
  8
0
 10
-98.5
 20
288
 11
-98.5328
 21
287.688
  0
LINE
  8
0
 10
-98.5328
 20
287.688
 11
-98.6297
 21
287.39
  0
LINE
  8
0
 10
-98.6297
 20
287.39
 11
-98.7865
 21
287.118
  0
LINE
  8
0
 10
-98.7865
 20
287.118
 11
-98.9963
 21
286.885
  0
LINE
  8
0
 10
-98.9963
 20
286.885
 11
-99.25
 21
286.701
  0
LINE
  8
0
 10
-99.25
 20
286.701
 11
-99.5365
 21
286.573
  0
LINE
  8
0
 10
-99.5365
 20
286.573
 11
-99.8432
 21
286.508
  0
LINE
  8
0
 10
-99.8432
 20
286.508
 11
-100.157
 21
286.508
  0
LINE
  8
0
 10
-14.6568
 20
262.008
 11
-14.9635
 21
262.073
  0
LINE
  8
0
 10
-14.9635
 20
262.073
 11
-15.25
 21
262.201
  0
LINE
  8
0
 10
-15.25
 20
262.201
 11
-15.5037
 21
262.385
  0
LINE
  8
0
 10
-15.5037
 20
262.385
 11
-15.7135
 21
262.618
  0
LINE
  8
0
 10
-15.7135
 20
262.618
 11
-15.8703
 21
262.89
  0
LINE
  8
0
 10
-15.8703
 20
262.89
 11
-15.9672
 21
263.188
  0
LINE
  8
0
 10
-15.9672
 20
263.188
 11
-16
 21
263.5
  0
LINE
  8
0
 10
-16
 20
263.5
 11
-15.9672
 21
263.812
  0
LINE
  8
0
 10
-15.9672
 20
263.812
 11
-15.8703
 21
264.11
  0
LINE
  8
0
 10
-15.8703
 20
264.11
 11
-15.7135
 21
264.382
  0
LINE
  8
0
 10
-15.7135
 20
264.382
 11
-15.5037
 21
264.615
  0
LINE
  8
0
 10
-15.5037
 20
264.615
 11
-15.25
 21
264.799
  0
LINE
  8
0
 10
-15.25
 20
264.799
 11
-14.9635
 21
264.927
  0
LINE
  8
0
 10
-14.9635
 20
264.927
 11
-14.6568
 21
264.992
  0
LINE
  8
0
 10
-14.6568
 20
264.992
 11
-14.3432
 21
264.992
  0
LINE
  8
0
 10
-14.3432
 20
264.992
 11
-14.0365
 21
264.927
  0
LINE
  8
0
 10
-14.0365
 20
264.927
 11
-13.75
 21
264.799
  0
LINE
  8
0
 10
-13.75
 20
264.799
 11
-13.4963
 21
264.615
  0
LINE
  8
0
 10
-13.4963
 20
264.615
 11
-13.2865
 21
264.382
  0
LINE
  8
0
 10
-13.2865
 20
264.382
 11
-13.1297
 21
264.11
  0
LINE
  8
0
 10
-13.1297
 20
264.11
 11
-13.0328
 21
263.812
  0
LINE
  8
0
 10
-13.0328
 20
263.812
 11
-13
 21
263.5
  0
LINE
  8
0
 10
-13
 20
263.5
 11
-13.0328
 21
263.188
  0
LINE
  8
0
 10
-13.0328
 20
263.188
 11
-13.1297
 21
262.89
  0
LINE
  8
0
 10
-13.1297
 20
262.89
 11
-13.2865
 21
262.618
  0
LINE
  8
0
 10
-13.2865
 20
262.618
 11
-13.4963
 21
262.385
  0
LINE
  8
0
 10
-13.4963
 20
262.385
 11
-13.75
 21
262.201
  0
LINE
  8
0
 10
-13.75
 20
262.201
 11
-14.0365
 21
262.073
  0
LINE
  8
0
 10
-14.0365
 20
262.073
 11
-14.3432
 21
262.008
  0
LINE
  8
0
 10
-14.3432
 20
262.008
 11
-14.6568
 21
262.008
  0
LINE
  8
0
 10
-14.6568
 20
153.008
 11
-14.9635
 21
153.073
  0
LINE
  8
0
 10
-14.9635
 20
153.073
 11
-15.25
 21
153.201
  0
LINE
  8
0
 10
-15.25
 20
153.201
 11
-15.5037
 21
153.385
  0
LINE
  8
0
 10
-15.5037
 20
153.385
 11
-15.7135
 21
153.618
  0
LINE
  8
0
 10
-15.7135
 20
153.618
 11
-15.8703
 21
153.89
  0
LINE
  8
0
 10
-15.8703
 20
153.89
 11
-15.9672
 21
154.188
  0
LINE
  8
0
 10
-15.9672
 20
154.188
 11
-16
 21
154.5
  0
LINE
  8
0
 10
-16
 20
154.5
 11
-15.9672
 21
154.812
  0
LINE
  8
0
 10
-15.9672
 20
154.812
 11
-15.8703
 21
155.11
  0
LINE
  8
0
 10
-15.8703
 20
155.11
 11
-15.7135
 21
155.382
  0
LINE
  8
0
 10
-15.7135
 20
155.382
 11
-15.5037
 21
155.615
  0
LINE
  8
0
 10
-15.5037
 20
155.615
 11
-15.25
 21
155.799
  0
LINE
  8
0
 10
-15.25
 20
155.799
 11
-14.9635
 21
155.927
  0
LINE
  8
0
 10
-14.9635
 20
155.927
 11
-14.6568
 21
155.992
  0
LINE
  8
0
 10
-14.6568
 20
155.992
 11
-14.3432
 21
155.992
  0
LINE
  8
0
 10
-14.3432
 20
155.992
 11
-14.0365
 21
155.927
  0
LINE
  8
0
 10
-14.0365
 20
155.927
 11
-13.75
 21
155.799
  0
LINE
  8
0
 10
-13.75
 20
155.799
 11
-13.4963
 21
155.615
  0
LINE
  8
0
 10
-13.4963
 20
155.615
 11
-13.2865
 21
155.382
  0
LINE
  8
0
 10
-13.2865
 20
155.382
 11
-13.1297
 21
155.11
  0
LINE
  8
0
 10
-13.1297
 20
155.11
 11
-13.0328
 21
154.812
  0
LINE
  8
0
 10
-13.0328
 20
154.812
 11
-13
 21
154.5
  0
LINE
  8
0
 10
-13
 20
154.5
 11
-13.0328
 21
154.188
  0
LINE
  8
0
 10
-13.0328
 20
154.188
 11
-13.1297
 21
153.89
  0
LINE
  8
0
 10
-13.1297
 20
153.89
 11
-13.2865
 21
153.618
  0
LINE
  8
0
 10
-13.2865
 20
153.618
 11
-13.4963
 21
153.385
  0
LINE
  8
0
 10
-13.4963
 20
153.385
 11
-13.75
 21
153.201
  0
LINE
  8
0
 10
-13.75
 20
153.201
 11
-14.0365
 21
153.073
  0
LINE
  8
0
 10
-14.0365
 20
153.073
 11
-14.3432
 21
153.008
  0
LINE
  8
0
 10
-14.3432
 20
153.008
 11
-14.6568
 21
153.008
  0
LINE
  8
0
 10
-109.157
 20
153.008
 11
-109.464
 21
153.073
  0
LINE
  8
0
 10
-109.464
 20
153.073
 11
-109.75
 21
153.201
  0
LINE
  8
0
 10
-109.75
 20
153.201
 11
-110.004
 21
153.385
  0
LINE
  8
0
 10
-110.004
 20
153.385
 11
-110.214
 21
153.618
  0
LINE
  8
0
 10
-110.214
 20
153.618
 11
-110.37
 21
153.89
  0
LINE
  8
0
 10
-110.37
 20
153.89
 11
-110.467
 21
154.188
  0
LINE
  8
0
 10
-110.467
 20
154.188
 11
-110.5
 21
154.5
  0
LINE
  8
0
 10
-110.5
 20
154.5
 11
-110.467
 21
154.812
  0
LINE
  8
0
 10
-110.467
 20
154.812
 11
-110.37
 21
155.11
  0
LINE
  8
0
 10
-110.37
 20
155.11
 11
-110.214
 21
155.382
  0
LINE
  8
0
 10
-110.214
 20
155.382
 11
-110.004
 21
155.615
  0
LINE
  8
0
 10
-110.004
 20
155.615
 11
-109.75
 21
155.799
  0
LINE
  8
0
 10
-109.75
 20
155.799
 11
-109.464
 21
155.927
  0
LINE
  8
0
 10
-109.464
 20
155.927
 11
-109.157
 21
155.992
  0
LINE
  8
0
 10
-109.157
 20
155.992
 11
-108.843
 21
155.992
  0
LINE
  8
0
 10
-108.843
 20
155.992
 11
-108.536
 21
155.927
  0
LINE
  8
0
 10
-108.536
 20
155.927
 11
-108.25
 21
155.799
  0
LINE
  8
0
 10
-108.25
 20
155.799
 11
-107.996
 21
155.615
  0
LINE
  8
0
 10
-107.996
 20
155.615
 11
-107.786
 21
155.382
  0
LINE
  8
0
 10
-107.786
 20
155.382
 11
-107.63
 21
155.11
  0
LINE
  8
0
 10
-107.63
 20
155.11
 11
-107.533
 21
154.812
  0
LINE
  8
0
 10
-107.533
 20
154.812
 11
-107.5
 21
154.5
  0
LINE
  8
0
 10
-107.5
 20
154.5
 11
-107.533
 21
154.188
  0
LINE
  8
0
 10
-107.533
 20
154.188
 11
-107.63
 21
153.89
  0
LINE
  8
0
 10
-107.63
 20
153.89
 11
-107.786
 21
153.618
  0
LINE
  8
0
 10
-107.786
 20
153.618
 11
-107.996
 21
153.385
  0
LINE
  8
0
 10
-107.996
 20
153.385
 11
-108.25
 21
153.201
  0
LINE
  8
0
 10
-108.25
 20
153.201
 11
-108.536
 21
153.073
  0
LINE
  8
0
 10
-108.536
 20
153.073
 11
-108.843
 21
153.008
  0
LINE
  8
0
 10
-108.843
 20
153.008
 11
-109.157
 21
153.008
  0
LINE
  8
0
 10
103.7
 20
221.27
 11
108.584
 21
218.45
  0
LINE
  8
0
 10
108.584
 20
218.45
 11
136.634
 21
267.034
  0
LINE
  8
0
 10
136.634
 20
267.034
 11
88.05
 21
295.084
  0
LINE
  8
0
 10
88.05
 20
295.084
 11
72.5574
 21
268.25
  0
LINE
  8
0
 10
72.5574
 20
268.25
 11
0
 21
268.25
  0
LINE
  8
0
 10
0
 20
268.25
 11
0
 21
244.5
  0
LINE
  8
0
 10
0
 20
244.5
 11
9.5
 21
244.5
  0
LINE
  8
0
 10
9.5
 20
244.5
 11
9.5
 21
261.75
  0
LINE
  8
0
 10
9.5
 20
261.75
 11
76.65
 21
261.75
  0
LINE
  8
0
 10
76.65
 20
261.75
 11
76.65
 21
260
  0
LINE
  8
0
 10
76.65
 20
260
 11
83.4115
 21
260
  0
LINE
  8
0
 10
83.4115
 20
260
 11
97.763
 21
284.857
  0
LINE
  8
0
 10
97.763
 20
284.857
 11
122.921
 21
270.332
  0
LINE
  8
0
 10
122.921
 20
270.332
 11
98.871
 21
228.677
  0
LINE
  8
0
 10
98.871
 20
228.677
 11
94.2
 21
231.373
  0
LINE
  8
0
 10
94.2
 20
231.373
 11
94.2
 21
213.65
  0
LINE
  8
0
 10
94.2
 20
213.65
 11
92.7
 21
213.65
  0
LINE
  8
0
 10
92.7
 20
213.65
 11
92.7
 21
204.6
  0
LINE
  8
0
 10
92.7
 20
204.6
 11
94.2
 21
204.6
  0
LINE
  8
0
 10
94.2
 20
204.6
 11
94.2
 21
185.55
  0
LINE
  8
0
 10
94.2
 20
185.55
 11
97.2
 21
185.55
  0
LINE
  8
0
 10
97.2
 20
185.55
 11
97.2
 21
156.5
  0
LINE
  8
0
 10
97.2
 20
156.5
 11
11
 21
156.5
  0
LINE
  8
0
 10
11
 20
156.5
 11
11
 21
175.55
  0
LINE
  8
0
 10
11
 20
175.55
 11
8
 21
175.55
  0
LINE
  8
0
 10
8
 20
175.55
 11
8
 21
194.6
  0
LINE
  8
0
 10
8
 20
194.6
 11
6.5
 21
194.6
  0
LINE
  8
0
 10
6.5
 20
194.6
 11
6.5
 21
203
  0
LINE
  8
0
 10
6.5
 20
203
 11
0
 21
203
  0
LINE
  8
0
 10
0
 20
203
 11
0
 21
150
  0
LINE
  8
0
 10
0
 20
150
 11
103.7
 21
150
  0
LINE
  8
0
 10
103.7
 20
150
 11
103.7
 21
221.27
  0
LINE
  8
0
 10
89.8432
 20
286.508
 11
89.5365
 21
286.573
  0
LINE
  8
0
 10
89.5365
 20
286.573
 11
89.25
 21
286.701
  0
LINE
  8
0
 10
89.25
 20
286.701
 11
88.9963
 21
286.885
  0
LINE
  8
0
 10
88.9963
 20
286.885
 11
88.7865
 21
287.118
  0
LINE
  8
0
 10
88.7865
 20
287.118
 11
88.6297
 21
287.39
  0
LINE
  8
0
 10
88.6297
 20
287.39
 11
88.5328
 21
287.688
  0
LINE
  8
0
 10
88.5328
 20
287.688
 11
88.5
 21
288
  0
LINE
  8
0
 10
88.5
 20
288
 11
88.5328
 21
288.312
  0
LINE
  8
0
 10
88.5328
 20
288.312
 11
88.6297
 21
288.61
  0
LINE
  8
0
 10
88.6297
 20
288.61
 11
88.7865
 21
288.882
  0
LINE
  8
0
 10
88.7865
 20
288.882
 11
88.9963
 21
289.115
  0
LINE
  8
0
 10
88.9963
 20
289.115
 11
89.25
 21
289.299
  0
LINE
  8
0
 10
89.25
 20
289.299
 11
89.5365
 21
289.427
  0
LINE
  8
0
 10
89.5365
 20
289.427
 11
89.8432
 21
289.492
  0
LINE
  8
0
 10
89.8432
 20
289.492
 11
90.1568
 21
289.492
  0
LINE
  8
0
 10
90.1568
 20
289.492
 11
90.4635
 21
289.427
  0
LINE
  8
0
 10
90.4635
 20
289.427
 11
90.75
 21
289.299
  0
LINE
  8
0
 10
90.75
 20
289.299
 11
91.0037
 21
289.115
  0
LINE
  8
0
 10
91.0037
 20
289.115
 11
91.2135
 21
288.882
  0
LINE
  8
0
 10
91.2135
 20
288.882
 11
91.3703
 21
288.61
  0
LINE
  8
0
 10
91.3703
 20
288.61
 11
91.4672
 21
288.312
  0
LINE
  8
0
 10
91.4672
 20
288.312
 11
91.5
 21
288
  0
LINE
  8
0
 10
91.5
 20
288
 11
91.4672
 21
287.688
  0
LINE
  8
0
 10
91.4672
 20
287.688
 11
91.3703
 21
287.39
  0
LINE
  8
0
 10
91.3703
 20
287.39
 11
91.2135
 21
287.118
  0
LINE
  8
0
 10
91.2135
 20
287.118
 11
91.0037
 21
286.885
  0
LINE
  8
0
 10
91.0037
 20
286.885
 11
90.75
 21
286.701
  0
LINE
  8
0
 10
90.75
 20
286.701
 11
90.4635
 21
286.573
  0
LINE
  8
0
 10
90.4635
 20
286.573
 11
90.1568
 21
286.508
  0
LINE
  8
0
 10
90.1568
 20
286.508
 11
89.8432
 21
286.508
  0
LINE
  8
0
 10
4.3432
 20
262.008
 11
4.03647
 21
262.073
  0
LINE
  8
0
 10
4.03647
 20
262.073
 11
3.75
 21
262.201
  0
LINE
  8
0
 10
3.75
 20
262.201
 11
3.49629
 21
262.385
  0
LINE
  8
0
 10
3.49629
 20
262.385
 11
3.28647
 21
262.618
  0
LINE
  8
0
 10
3.28647
 20
262.618
 11
3.12967
 21
262.89
  0
LINE
  8
0
 10
3.12967
 20
262.89
 11
3.03278
 21
263.188
  0
LINE
  8
0
 10
3.03278
 20
263.188
 11
3
 21
263.5
  0
LINE
  8
0
 10
3
 20
263.5
 11
3.03278
 21
263.812
  0
LINE
  8
0
 10
3.03278
 20
263.812
 11
3.12967
 21
264.11
  0
LINE
  8
0
 10
3.12967
 20
264.11
 11
3.28647
 21
264.382
  0
LINE
  8
0
 10
3.28647
 20
264.382
 11
3.49629
 21
264.615
  0
LINE
  8
0
 10
3.49629
 20
264.615
 11
3.75
 21
264.799
  0
LINE
  8
0
 10
3.75
 20
264.799
 11
4.03647
 21
264.927
  0
LINE
  8
0
 10
4.03647
 20
264.927
 11
4.3432
 21
264.992
  0
LINE
  8
0
 10
4.3432
 20
264.992
 11
4.65678
 21
264.992
  0
LINE
  8
0
 10
4.65678
 20
264.992
 11
4.96352
 21
264.927
  0
LINE
  8
0
 10
4.96352
 20
264.927
 11
5.25
 21
264.799
  0
LINE
  8
0
 10
5.25
 20
264.799
 11
5.50369
 21
264.615
  0
LINE
  8
0
 10
5.50369
 20
264.615
 11
5.71352
 21
264.382
  0
LINE
  8
0
 10
5.71352
 20
264.382
 11
5.87032
 21
264.11
  0
LINE
  8
0
 10
5.87032
 20
264.11
 11
5.96721
 21
263.812
  0
LINE
  8
0
 10
5.96721
 20
263.812
 11
6
 21
263.5
  0
LINE
  8
0
 10
6
 20
263.5
 11
5.96721
 21
263.188
  0
LINE
  8
0
 10
5.96721
 20
263.188
 11
5.87032
 21
262.89
  0
LINE
  8
0
 10
5.87032
 20
262.89
 11
5.71352
 21
262.618
  0
LINE
  8
0
 10
5.71352
 20
262.618
 11
5.50369
 21
262.385
  0
LINE
  8
0
 10
5.50369
 20
262.385
 11
5.25
 21
262.201
  0
LINE
  8
0
 10
5.25
 20
262.201
 11
4.96352
 21
262.073
  0
LINE
  8
0
 10
4.96352
 20
262.073
 11
4.65678
 21
262.008
  0
LINE
  8
0
 10
4.65678
 20
262.008
 11
4.3432
 21
262.008
  0
LINE
  8
0
 10
98.8432
 20
153.008
 11
98.5365
 21
153.073
  0
LINE
  8
0
 10
98.5365
 20
153.073
 11
98.25
 21
153.201
  0
LINE
  8
0
 10
98.25
 20
153.201
 11
97.9963
 21
153.385
  0
LINE
  8
0
 10
97.9963
 20
153.385
 11
97.7865
 21
153.618
  0
LINE
  8
0
 10
97.7865
 20
153.618
 11
97.6297
 21
153.89
  0
LINE
  8
0
 10
97.6297
 20
153.89
 11
97.5328
 21
154.188
  0
LINE
  8
0
 10
97.5328
 20
154.188
 11
97.5
 21
154.5
  0
LINE
  8
0
 10
97.5
 20
154.5
 11
97.5328
 21
154.812
  0
LINE
  8
0
 10
97.5328
 20
154.812
 11
97.6297
 21
155.11
  0
LINE
  8
0
 10
97.6297
 20
155.11
 11
97.7865
 21
155.382
  0
LINE
  8
0
 10
97.7865
 20
155.382
 11
97.9963
 21
155.615
  0
LINE
  8
0
 10
97.9963
 20
155.615
 11
98.25
 21
155.799
  0
LINE
  8
0
 10
98.25
 20
155.799
 11
98.5365
 21
155.927
  0
LINE
  8
0
 10
98.5365
 20
155.927
 11
98.8432
 21
155.992
  0
LINE
  8
0
 10
98.8432
 20
155.992
 11
99.1568
 21
155.992
  0
LINE
  8
0
 10
99.1568
 20
155.992
 11
99.4635
 21
155.927
  0
LINE
  8
0
 10
99.4635
 20
155.927
 11
99.75
 21
155.799
  0
LINE
  8
0
 10
99.75
 20
155.799
 11
100.004
 21
155.615
  0
LINE
  8
0
 10
100.004
 20
155.615
 11
100.214
 21
155.382
  0
LINE
  8
0
 10
100.214
 20
155.382
 11
100.37
 21
155.11
  0
LINE
  8
0
 10
100.37
 20
155.11
 11
100.467
 21
154.812
  0
LINE
  8
0
 10
100.467
 20
154.812
 11
100.5
 21
154.5
  0
LINE
  8
0
 10
100.5
 20
154.5
 11
100.467
 21
154.188
  0
LINE
  8
0
 10
100.467
 20
154.188
 11
100.37
 21
153.89
  0
LINE
  8
0
 10
100.37
 20
153.89
 11
100.214
 21
153.618
  0
LINE
  8
0
 10
100.214
 20
153.618
 11
100.004
 21
153.385
  0
LINE
  8
0
 10
100.004
 20
153.385
 11
99.75
 21
153.201
  0
LINE
  8
0
 10
99.75
 20
153.201
 11
99.4635
 21
153.073
  0
LINE
  8
0
 10
99.4635
 20
153.073
 11
99.1568
 21
153.008
  0
LINE
  8
0
 10
99.1568
 20
153.008
 11
98.8432
 21
153.008
  0
LINE
  8
0
 10
4.3432
 20
153.008
 11
4.03647
 21
153.073
  0
LINE
  8
0
 10
4.03647
 20
153.073
 11
3.75
 21
153.201
  0
LINE
  8
0
 10
3.75
 20
153.201
 11
3.49629
 21
153.385
  0
LINE
  8
0
 10
3.49629
 20
153.385
 11
3.28647
 21
153.618
  0
LINE
  8
0
 10
3.28647
 20
153.618
 11
3.12967
 21
153.89
  0
LINE
  8
0
 10
3.12967
 20
153.89
 11
3.03278
 21
154.188
  0
LINE
  8
0
 10
3.03278
 20
154.188
 11
3
 21
154.5
  0
LINE
  8
0
 10
3
 20
154.5
 11
3.03278
 21
154.812
  0
LINE
  8
0
 10
3.03278
 20
154.812
 11
3.12967
 21
155.11
  0
LINE
  8
0
 10
3.12967
 20
155.11
 11
3.28647
 21
155.382
  0
LINE
  8
0
 10
3.28647
 20
155.382
 11
3.49629
 21
155.615
  0
LINE
  8
0
 10
3.49629
 20
155.615
 11
3.75
 21
155.799
  0
LINE
  8
0
 10
3.75
 20
155.799
 11
4.03647
 21
155.927
  0
LINE
  8
0
 10
4.03647
 20
155.927
 11
4.3432
 21
155.992
  0
LINE
  8
0
 10
4.3432
 20
155.992
 11
4.65678
 21
155.992
  0
LINE
  8
0
 10
4.65678
 20
155.992
 11
4.96352
 21
155.927
  0
LINE
  8
0
 10
4.96352
 20
155.927
 11
5.25
 21
155.799
  0
LINE
  8
0
 10
5.25
 20
155.799
 11
5.50369
 21
155.615
  0
LINE
  8
0
 10
5.50369
 20
155.615
 11
5.71352
 21
155.382
  0
LINE
  8
0
 10
5.71352
 20
155.382
 11
5.87032
 21
155.11
  0
LINE
  8
0
 10
5.87032
 20
155.11
 11
5.96721
 21
154.812
  0
LINE
  8
0
 10
5.96721
 20
154.812
 11
6
 21
154.5
  0
LINE
  8
0
 10
6
 20
154.5
 11
5.96721
 21
154.188
  0
LINE
  8
0
 10
5.96721
 20
154.188
 11
5.87032
 21
153.89
  0
LINE
  8
0
 10
5.87032
 20
153.89
 11
5.71352
 21
153.618
  0
LINE
  8
0
 10
5.71352
 20
153.618
 11
5.50369
 21
153.385
  0
LINE
  8
0
 10
5.50369
 20
153.385
 11
5.25
 21
153.201
  0
LINE
  8
0
 10
5.25
 20
153.201
 11
4.96352
 21
153.073
  0
LINE
  8
0
 10
4.96352
 20
153.073
 11
4.65678
 21
153.008
  0
LINE
  8
0
 10
4.65678
 20
153.008
 11
4.3432
 21
153.008
  0
LINE
  8
0
 10
6.5
 20
223.65
 11
8
 21
223.65
  0
LINE
  8
0
 10
8
 20
223.65
 11
8
 21
238
  0
LINE
  8
0
 10
8
 20
238
 11
0
 21
238
  0
LINE
  8
0
 10
0
 20
238
 11
0
 21
216
  0
LINE
  8
0
 10
0
 20
216
 11
6.5
 21
216
  0
LINE
  8
0
 10
6.5
 20
216
 11
6.5
 21
223.65
  0
LINE
  8
0
 10
-10
 20
238
 11
-18
 21
238
  0
LINE
  8
0
 10
-18
 20
238
 11
-18
 21
223.65
  0
LINE
  8
0
 10
-18
 20
223.65
 11
-16.5
 21
223.65
  0
LINE
  8
0
 10
-16.5
 20
223.65
 11
-16.5
 21
216
  0
LINE
  8
0
 10
-16.5
 20
216
 11
-10
 21
216
  0
LINE
  8
0
 10
-10
 20
216
 11
-10
 21
238
  0
LINE
  8
0
 10
103.7
 20
71.2698
 11
108.584
 21
68.45
  0
LINE
  8
0
 10
108.584
 20
68.45
 11
136.634
 21
117.034
  0
LINE
  8
0
 10
136.634
 20
117.034
 11
88.05
 21
145.084
  0
LINE
  8
0
 10
88.05
 20
145.084
 11
72.5574
 21
118.25
  0
LINE
  8
0
 10
72.5574
 20
118.25
 11
0
 21
118.25
  0
LINE
  8
0
 10
0
 20
118.25
 11
0
 21
0
  0
LINE
  8
0
 10
0
 20
0
 11
103.7
 21
0
  0
LINE
  8
0
 10
103.7
 20
0
 11
103.7
 21
71.2698
  0
LINE
  8
0
 10
89.8432
 20
136.508
 11
89.5365
 21
136.573
  0
LINE
  8
0
 10
89.5365
 20
136.573
 11
89.25
 21
136.701
  0
LINE
  8
0
 10
89.25
 20
136.701
 11
88.9963
 21
136.885
  0
LINE
  8
0
 10
88.9963
 20
136.885
 11
88.7865
 21
137.118
  0
LINE
  8
0
 10
88.7865
 20
137.118
 11
88.6297
 21
137.39
  0
LINE
  8
0
 10
88.6297
 20
137.39
 11
88.5328
 21
137.688
  0
LINE
  8
0
 10
88.5328
 20
137.688
 11
88.5
 21
138
  0
LINE
  8
0
 10
88.5
 20
138
 11
88.5328
 21
138.312
  0
LINE
  8
0
 10
88.5328
 20
138.312
 11
88.6297
 21
138.61
  0
LINE
  8
0
 10
88.6297
 20
138.61
 11
88.7865
 21
138.882
  0
LINE
  8
0
 10
88.7865
 20
138.882
 11
88.9963
 21
139.115
  0
LINE
  8
0
 10
88.9963
 20
139.115
 11
89.25
 21
139.299
  0
LINE
  8
0
 10
89.25
 20
139.299
 11
89.5365
 21
139.427
  0
LINE
  8
0
 10
89.5365
 20
139.427
 11
89.8432
 21
139.492
  0
LINE
  8
0
 10
89.8432
 20
139.492
 11
90.1568
 21
139.492
  0
LINE
  8
0
 10
90.1568
 20
139.492
 11
90.4635
 21
139.427
  0
LINE
  8
0
 10
90.4635
 20
139.427
 11
90.75
 21
139.299
  0
LINE
  8
0
 10
90.75
 20
139.299
 11
91.0037
 21
139.115
  0
LINE
  8
0
 10
91.0037
 20
139.115
 11
91.2135
 21
138.882
  0
LINE
  8
0
 10
91.2135
 20
138.882
 11
91.3703
 21
138.61
  0
LINE
  8
0
 10
91.3703
 20
138.61
 11
91.4672
 21
138.312
  0
LINE
  8
0
 10
91.4672
 20
138.312
 11
91.5
 21
138
  0
LINE
  8
0
 10
91.5
 20
138
 11
91.4672
 21
137.688
  0
LINE
  8
0
 10
91.4672
 20
137.688
 11
91.3703
 21
137.39
  0
LINE
  8
0
 10
91.3703
 20
137.39
 11
91.2135
 21
137.118
  0
LINE
  8
0
 10
91.2135
 20
137.118
 11
91.0037
 21
136.885
  0
LINE
  8
0
 10
91.0037
 20
136.885
 11
90.75
 21
136.701
  0
LINE
  8
0
 10
90.75
 20
136.701
 11
90.4635
 21
136.573
  0
LINE
  8
0
 10
90.4635
 20
136.573
 11
90.1568
 21
136.508
  0
LINE
  8
0
 10
90.1568
 20
136.508
 11
89.8432
 21
136.508
  0
LINE
  8
0
 10
4.3432
 20
112.008
 11
4.03647
 21
112.073
  0
LINE
  8
0
 10
4.03647
 20
112.073
 11
3.75
 21
112.201
  0
LINE
  8
0
 10
3.75
 20
112.201
 11
3.49629
 21
112.385
  0
LINE
  8
0
 10
3.49629
 20
112.385
 11
3.28647
 21
112.618
  0
LINE
  8
0
 10
3.28647
 20
112.618
 11
3.12967
 21
112.89
  0
LINE
  8
0
 10
3.12967
 20
112.89
 11
3.03278
 21
113.188
  0
LINE
  8
0
 10
3.03278
 20
113.188
 11
3
 21
113.5
  0
LINE
  8
0
 10
3
 20
113.5
 11
3.03278
 21
113.812
  0
LINE
  8
0
 10
3.03278
 20
113.812
 11
3.12967
 21
114.11
  0
LINE
  8
0
 10
3.12967
 20
114.11
 11
3.28647
 21
114.382
  0
LINE
  8
0
 10
3.28647
 20
114.382
 11
3.49629
 21
114.615
  0
LINE
  8
0
 10
3.49629
 20
114.615
 11
3.75
 21
114.799
  0
LINE
  8
0
 10
3.75
 20
114.799
 11
4.03647
 21
114.927
  0
LINE
  8
0
 10
4.03647
 20
114.927
 11
4.3432
 21
114.992
  0
LINE
  8
0
 10
4.3432
 20
114.992
 11
4.65678
 21
114.992
  0
LINE
  8
0
 10
4.65678
 20
114.992
 11
4.96352
 21
114.927
  0
LINE
  8
0
 10
4.96352
 20
114.927
 11
5.25
 21
114.799
  0
LINE
  8
0
 10
5.25
 20
114.799
 11
5.50369
 21
114.615
  0
LINE
  8
0
 10
5.50369
 20
114.615
 11
5.71352
 21
114.382
  0
LINE
  8
0
 10
5.71352
 20
114.382
 11
5.87032
 21
114.11
  0
LINE
  8
0
 10
5.87032
 20
114.11
 11
5.96721
 21
113.812
  0
LINE
  8
0
 10
5.96721
 20
113.812
 11
6
 21
113.5
  0
LINE
  8
0
 10
6
 20
113.5
 11
5.96721
 21
113.188
  0
LINE
  8
0
 10
5.96721
 20
113.188
 11
5.87032
 21
112.89
  0
LINE
  8
0
 10
5.87032
 20
112.89
 11
5.71352
 21
112.618
  0
LINE
  8
0
 10
5.71352
 20
112.618
 11
5.50369
 21
112.385
  0
LINE
  8
0
 10
5.50369
 20
112.385
 11
5.25
 21
112.201
  0
LINE
  8
0
 10
5.25
 20
112.201
 11
4.96352
 21
112.073
  0
LINE
  8
0
 10
4.96352
 20
112.073
 11
4.65678
 21
112.008
  0
LINE
  8
0
 10
4.65678
 20
112.008
 11
4.3432
 21
112.008
  0
LINE
  8
0
 10
98.8432
 20
3.00821
 11
98.5365
 21
3.07341
  0
LINE
  8
0
 10
98.5365
 20
3.07341
 11
98.25
 21
3.20096
  0
LINE
  8
0
 10
98.25
 20
3.20096
 11
97.9963
 21
3.38527
  0
LINE
  8
0
 10
97.9963
 20
3.38527
 11
97.7865
 21
3.61832
  0
LINE
  8
0
 10
97.7865
 20
3.61832
 11
97.6297
 21
3.88989
  0
LINE
  8
0
 10
97.6297
 20
3.88989
 11
97.5328
 21
4.18813
  0
LINE
  8
0
 10
97.5328
 20
4.18813
 11
97.5
 21
4.5
  0
LINE
  8
0
 10
97.5
 20
4.5
 11
97.5328
 21
4.81186
  0
LINE
  8
0
 10
97.5328
 20
4.81186
 11
97.6297
 21
5.11009
  0
LINE
  8
0
 10
97.6297
 20
5.11009
 11
97.7865
 21
5.38167
  0
LINE
  8
0
 10
97.7865
 20
5.38167
 11
97.9963
 21
5.61472
  0
LINE
  8
0
 10
97.9963
 20
5.61472
 11
98.25
 21
5.79903
  0
LINE
  8
0
 10
98.25
 20
5.79903
 11
98.5365
 21
5.92657
  0
LINE
  8
0
 10
98.5365
 20
5.92657
 11
98.8432
 21
5.99178
  0
LINE
  8
0
 10
98.8432
 20
5.99178
 11
99.1568
 21
5.99178
  0
LINE
  8
0
 10
99.1568
 20
5.99178
 11
99.4635
 21
5.92657
  0
LINE
  8
0
 10
99.4635
 20
5.92657
 11
99.75
 21
5.79903
  0
LINE
  8
0
 10
99.75
 20
5.79903
 11
100.004
 21
5.61472
  0
LINE
  8
0
 10
100.004
 20
5.61472
 11
100.214
 21
5.38167
  0
LINE
  8
0
 10
100.214
 20
5.38167
 11
100.37
 21
5.11009
  0
LINE
  8
0
 10
100.37
 20
5.11009
 11
100.467
 21
4.81186
  0
LINE
  8
0
 10
100.467
 20
4.81186
 11
100.5
 21
4.5
  0
LINE
  8
0
 10
100.5
 20
4.5
 11
100.467
 21
4.18813
  0
LINE
  8
0
 10
100.467
 20
4.18813
 11
100.37
 21
3.88989
  0
LINE
  8
0
 10
100.37
 20
3.88989
 11
100.214
 21
3.61832
  0
LINE
  8
0
 10
100.214
 20
3.61832
 11
100.004
 21
3.38527
  0
LINE
  8
0
 10
100.004
 20
3.38527
 11
99.75
 21
3.20096
  0
LINE
  8
0
 10
99.75
 20
3.20096
 11
99.4635
 21
3.07341
  0
LINE
  8
0
 10
99.4635
 20
3.07341
 11
99.1568
 21
3.00821
  0
LINE
  8
0
 10
99.1568
 20
3.00821
 11
98.8432
 21
3.00821
  0
LINE
  8
0
 10
4.3432
 20
3.00821
 11
4.03647
 21
3.07341
  0
LINE
  8
0
 10
4.03647
 20
3.07341
 11
3.75
 21
3.20096
  0
LINE
  8
0
 10
3.75
 20
3.20096
 11
3.49629
 21
3.38527
  0
LINE
  8
0
 10
3.49629
 20
3.38527
 11
3.28647
 21
3.61832
  0
LINE
  8
0
 10
3.28647
 20
3.61832
 11
3.12967
 21
3.88989
  0
LINE
  8
0
 10
3.12967
 20
3.88989
 11
3.03278
 21
4.18813
  0
LINE
  8
0
 10
3.03278
 20
4.18813
 11
3
 21
4.5
  0
LINE
  8
0
 10
3
 20
4.5
 11
3.03278
 21
4.81186
  0
LINE
  8
0
 10
3.03278
 20
4.81186
 11
3.12967
 21
5.11009
  0
LINE
  8
0
 10
3.12967
 20
5.11009
 11
3.28647
 21
5.38167
  0
LINE
  8
0
 10
3.28647
 20
5.38167
 11
3.49629
 21
5.61472
  0
LINE
  8
0
 10
3.49629
 20
5.61472
 11
3.75
 21
5.79903
  0
LINE
  8
0
 10
3.75
 20
5.79903
 11
4.03647
 21
5.92657
  0
LINE
  8
0
 10
4.03647
 20
5.92657
 11
4.3432
 21
5.99178
  0
LINE
  8
0
 10
4.3432
 20
5.99178
 11
4.65678
 21
5.99178
  0
LINE
  8
0
 10
4.65678
 20
5.99178
 11
4.96352
 21
5.92657
  0
LINE
  8
0
 10
4.96352
 20
5.92657
 11
5.25
 21
5.79903
  0
LINE
  8
0
 10
5.25
 20
5.79903
 11
5.50369
 21
5.61472
  0
LINE
  8
0
 10
5.50369
 20
5.61472
 11
5.71352
 21
5.38167
  0
LINE
  8
0
 10
5.71352
 20
5.38167
 11
5.87032
 21
5.11009
  0
LINE
  8
0
 10
5.87032
 20
5.11009
 11
5.96721
 21
4.81186
  0
LINE
  8
0
 10
5.96721
 20
4.81186
 11
6
 21
4.5
  0
LINE
  8
0
 10
6
 20
4.5
 11
5.96721
 21
4.18813
  0
LINE
  8
0
 10
5.96721
 20
4.18813
 11
5.87032
 21
3.88989
  0
LINE
  8
0
 10
5.87032
 20
3.88989
 11
5.71352
 21
3.61832
  0
LINE
  8
0
 10
5.71352
 20
3.61832
 11
5.50369
 21
3.38527
  0
LINE
  8
0
 10
5.50369
 20
3.38527
 11
5.25
 21
3.20096
  0
LINE
  8
0
 10
5.25
 20
3.20096
 11
4.96352
 21
3.07341
  0
LINE
  8
0
 10
4.96352
 20
3.07341
 11
4.65678
 21
3.00821
  0
LINE
  8
0
 10
4.65678
 20
3.00821
 11
4.3432
 21
3.00821
  0
LINE
  8
0
 10
-10
 20
118.25
 11
-82.5574
 21
118.25
  0
LINE
  8
0
 10
-82.5574
 20
118.25
 11
-98.05
 21
145.084
  0
LINE
  8
0
 10
-98.05
 20
145.084
 11
-146.634
 21
117.034
  0
LINE
  8
0
 10
-146.634
 20
117.034
 11
-118.584
 21
68.45
  0
LINE
  8
0
 10
-118.584
 20
68.45
 11
-113.7
 21
71.2698
  0
LINE
  8
0
 10
-113.7
 20
71.2698
 11
-113.7
 21
0
  0
LINE
  8
0
 10
-113.7
 20
0
 11
-10
 21
0
  0
LINE
  8
0
 10
-10
 20
0
 11
-10
 21
118.25
  0
LINE
  8
0
 10
-100.157
 20
136.508
 11
-100.464
 21
136.573
  0
LINE
  8
0
 10
-100.464
 20
136.573
 11
-100.75
 21
136.701
  0
LINE
  8
0
 10
-100.75
 20
136.701
 11
-101.004
 21
136.885
  0
LINE
  8
0
 10
-101.004
 20
136.885
 11
-101.214
 21
137.118
  0
LINE
  8
0
 10
-101.214
 20
137.118
 11
-101.37
 21
137.39
  0
LINE
  8
0
 10
-101.37
 20
137.39
 11
-101.467
 21
137.688
  0
LINE
  8
0
 10
-101.467
 20
137.688
 11
-101.5
 21
138
  0
LINE
  8
0
 10
-101.5
 20
138
 11
-101.467
 21
138.312
  0
LINE
  8
0
 10
-101.467
 20
138.312
 11
-101.37
 21
138.61
  0
LINE
  8
0
 10
-101.37
 20
138.61
 11
-101.214
 21
138.882
  0
LINE
  8
0
 10
-101.214
 20
138.882
 11
-101.004
 21
139.115
  0
LINE
  8
0
 10
-101.004
 20
139.115
 11
-100.75
 21
139.299
  0
LINE
  8
0
 10
-100.75
 20
139.299
 11
-100.464
 21
139.427
  0
LINE
  8
0
 10
-100.464
 20
139.427
 11
-100.157
 21
139.492
  0
LINE
  8
0
 10
-100.157
 20
139.492
 11
-99.8432
 21
139.492
  0
LINE
  8
0
 10
-99.8432
 20
139.492
 11
-99.5365
 21
139.427
  0
LINE
  8
0
 10
-99.5365
 20
139.427
 11
-99.25
 21
139.299
  0
LINE
  8
0
 10
-99.25
 20
139.299
 11
-98.9963
 21
139.115
  0
LINE
  8
0
 10
-98.9963
 20
139.115
 11
-98.7865
 21
138.882
  0
LINE
  8
0
 10
-98.7865
 20
138.882
 11
-98.6297
 21
138.61
  0
LINE
  8
0
 10
-98.6297
 20
138.61
 11
-98.5328
 21
138.312
  0
LINE
  8
0
 10
-98.5328
 20
138.312
 11
-98.5
 21
138
  0
LINE
  8
0
 10
-98.5
 20
138
 11
-98.5328
 21
137.688
  0
LINE
  8
0
 10
-98.5328
 20
137.688
 11
-98.6297
 21
137.39
  0
LINE
  8
0
 10
-98.6297
 20
137.39
 11
-98.7865
 21
137.118
  0
LINE
  8
0
 10
-98.7865
 20
137.118
 11
-98.9963
 21
136.885
  0
LINE
  8
0
 10
-98.9963
 20
136.885
 11
-99.25
 21
136.701
  0
LINE
  8
0
 10
-99.25
 20
136.701
 11
-99.5365
 21
136.573
  0
LINE
  8
0
 10
-99.5365
 20
136.573
 11
-99.8432
 21
136.508
  0
LINE
  8
0
 10
-99.8432
 20
136.508
 11
-100.157
 21
136.508
  0
LINE
  8
0
 10
-14.6568
 20
112.008
 11
-14.9635
 21
112.073
  0
LINE
  8
0
 10
-14.9635
 20
112.073
 11
-15.25
 21
112.201
  0
LINE
  8
0
 10
-15.25
 20
112.201
 11
-15.5037
 21
112.385
  0
LINE
  8
0
 10
-15.5037
 20
112.385
 11
-15.7135
 21
112.618
  0
LINE
  8
0
 10
-15.7135
 20
112.618
 11
-15.8703
 21
112.89
  0
LINE
  8
0
 10
-15.8703
 20
112.89
 11
-15.9672
 21
113.188
  0
LINE
  8
0
 10
-15.9672
 20
113.188
 11
-16
 21
113.5
  0
LINE
  8
0
 10
-16
 20
113.5
 11
-15.9672
 21
113.812
  0
LINE
  8
0
 10
-15.9672
 20
113.812
 11
-15.8703
 21
114.11
  0
LINE
  8
0
 10
-15.8703
 20
114.11
 11
-15.7135
 21
114.382
  0
LINE
  8
0
 10
-15.7135
 20
114.382
 11
-15.5037
 21
114.615
  0
LINE
  8
0
 10
-15.5037
 20
114.615
 11
-15.25
 21
114.799
  0
LINE
  8
0
 10
-15.25
 20
114.799
 11
-14.9635
 21
114.927
  0
LINE
  8
0
 10
-14.9635
 20
114.927
 11
-14.6568
 21
114.992
  0
LINE
  8
0
 10
-14.6568
 20
114.992
 11
-14.3432
 21
114.992
  0
LINE
  8
0
 10
-14.3432
 20
114.992
 11
-14.0365
 21
114.927
  0
LINE
  8
0
 10
-14.0365
 20
114.927
 11
-13.75
 21
114.799
  0
LINE
  8
0
 10
-13.75
 20
114.799
 11
-13.4963
 21
114.615
  0
LINE
  8
0
 10
-13.4963
 20
114.615
 11
-13.2865
 21
114.382
  0
LINE
  8
0
 10
-13.2865
 20
114.382
 11
-13.1297
 21
114.11
  0
LINE
  8
0
 10
-13.1297
 20
114.11
 11
-13.0328
 21
113.812
  0
LINE
  8
0
 10
-13.0328
 20
113.812
 11
-13
 21
113.5
  0
LINE
  8
0
 10
-13
 20
113.5
 11
-13.0328
 21
113.188
  0
LINE
  8
0
 10
-13.0328
 20
113.188
 11
-13.1297
 21
112.89
  0
LINE
  8
0
 10
-13.1297
 20
112.89
 11
-13.2865
 21
112.618
  0
LINE
  8
0
 10
-13.2865
 20
112.618
 11
-13.4963
 21
112.385
  0
LINE
  8
0
 10
-13.4963
 20
112.385
 11
-13.75
 21
112.201
  0
LINE
  8
0
 10
-13.75
 20
112.201
 11
-14.0365
 21
112.073
  0
LINE
  8
0
 10
-14.0365
 20
112.073
 11
-14.3432
 21
112.008
  0
LINE
  8
0
 10
-14.3432
 20
112.008
 11
-14.6568
 21
112.008
  0
LINE
  8
0
 10
-109.157
 20
3.00821
 11
-109.464
 21
3.07341
  0
LINE
  8
0
 10
-109.464
 20
3.07341
 11
-109.75
 21
3.20096
  0
LINE
  8
0
 10
-109.75
 20
3.20096
 11
-110.004
 21
3.38527
  0
LINE
  8
0
 10
-110.004
 20
3.38527
 11
-110.214
 21
3.61832
  0
LINE
  8
0
 10
-110.214
 20
3.61832
 11
-110.37
 21
3.88989
  0
LINE
  8
0
 10
-110.37
 20
3.88989
 11
-110.467
 21
4.18813
  0
LINE
  8
0
 10
-110.467
 20
4.18813
 11
-110.5
 21
4.5
  0
LINE
  8
0
 10
-110.5
 20
4.5
 11
-110.467
 21
4.81186
  0
LINE
  8
0
 10
-110.467
 20
4.81186
 11
-110.37
 21
5.11009
  0
LINE
  8
0
 10
-110.37
 20
5.11009
 11
-110.214
 21
5.38167
  0
LINE
  8
0
 10
-110.214
 20
5.38167
 11
-110.004
 21
5.61472
  0
LINE
  8
0
 10
-110.004
 20
5.61472
 11
-109.75
 21
5.79903
  0
LINE
  8
0
 10
-109.75
 20
5.79903
 11
-109.464
 21
5.92657
  0
LINE
  8
0
 10
-109.464
 20
5.92657
 11
-109.157
 21
5.99178
  0
LINE
  8
0
 10
-109.157
 20
5.99178
 11
-108.843
 21
5.99178
  0
LINE
  8
0
 10
-108.843
 20
5.99178
 11
-108.536
 21
5.92657
  0
LINE
  8
0
 10
-108.536
 20
5.92657
 11
-108.25
 21
5.79903
  0
LINE
  8
0
 10
-108.25
 20
5.79903
 11
-107.996
 21
5.61472
  0
LINE
  8
0
 10
-107.996
 20
5.61472
 11
-107.786
 21
5.38167
  0
LINE
  8
0
 10
-107.786
 20
5.38167
 11
-107.63
 21
5.11009
  0
LINE
  8
0
 10
-107.63
 20
5.11009
 11
-107.533
 21
4.81186
  0
LINE
  8
0
 10
-107.533
 20
4.81186
 11
-107.5
 21
4.5
  0
LINE
  8
0
 10
-107.5
 20
4.5
 11
-107.533
 21
4.18813
  0
LINE
  8
0
 10
-107.533
 20
4.18813
 11
-107.63
 21
3.88989
  0
LINE
  8
0
 10
-107.63
 20
3.88989
 11
-107.786
 21
3.61832
  0
LINE
  8
0
 10
-107.786
 20
3.61832
 11
-107.996
 21
3.38527
  0
LINE
  8
0
 10
-107.996
 20
3.38527
 11
-108.25
 21
3.20096
  0
LINE
  8
0
 10
-108.25
 20
3.20096
 11
-108.536
 21
3.07341
  0
LINE
  8
0
 10
-108.536
 20
3.07341
 11
-108.843
 21
3.00821
  0
LINE
  8
0
 10
-108.843
 20
3.00821
 11
-109.157
 21
3.00821
  0
LINE
  8
0
 10
-14.6568
 20
3.00821
 11
-14.9635
 21
3.07341
  0
LINE
  8
0
 10
-14.9635
 20
3.07341
 11
-15.25
 21
3.20096
  0
LINE
  8
0
 10
-15.25
 20
3.20096
 11
-15.5037
 21
3.38527
  0
LINE
  8
0
 10
-15.5037
 20
3.38527
 11
-15.7135
 21
3.61832
  0
LINE
  8
0
 10
-15.7135
 20
3.61832
 11
-15.8703
 21
3.88989
  0
LINE
  8
0
 10
-15.8703
 20
3.88989
 11
-15.9672
 21
4.18813
  0
LINE
  8
0
 10
-15.9672
 20
4.18813
 11
-16
 21
4.5
  0
LINE
  8
0
 10
-16
 20
4.5
 11
-15.9672
 21
4.81186
  0
LINE
  8
0
 10
-15.9672
 20
4.81186
 11
-15.8703
 21
5.11009
  0
LINE
  8
0
 10
-15.8703
 20
5.11009
 11
-15.7135
 21
5.38167
  0
LINE
  8
0
 10
-15.7135
 20
5.38167
 11
-15.5037
 21
5.61472
  0
LINE
  8
0
 10
-15.5037
 20
5.61472
 11
-15.25
 21
5.79903
  0
LINE
  8
0
 10
-15.25
 20
5.79903
 11
-14.9635
 21
5.92657
  0
LINE
  8
0
 10
-14.9635
 20
5.92657
 11
-14.6568
 21
5.99178
  0
LINE
  8
0
 10
-14.6568
 20
5.99178
 11
-14.3432
 21
5.99178
  0
LINE
  8
0
 10
-14.3432
 20
5.99178
 11
-14.0365
 21
5.92657
  0
LINE
  8
0
 10
-14.0365
 20
5.92657
 11
-13.75
 21
5.79903
  0
LINE
  8
0
 10
-13.75
 20
5.79903
 11
-13.4963
 21
5.61472
  0
LINE
  8
0
 10
-13.4963
 20
5.61472
 11
-13.2865
 21
5.38167
  0
LINE
  8
0
 10
-13.2865
 20
5.38167
 11
-13.1297
 21
5.11009
  0
LINE
  8
0
 10
-13.1297
 20
5.11009
 11
-13.0328
 21
4.81186
  0
LINE
  8
0
 10
-13.0328
 20
4.81186
 11
-13
 21
4.5
  0
LINE
  8
0
 10
-13
 20
4.5
 11
-13.0328
 21
4.18813
  0
LINE
  8
0
 10
-13.0328
 20
4.18813
 11
-13.1297
 21
3.88989
  0
LINE
  8
0
 10
-13.1297
 20
3.88989
 11
-13.2865
 21
3.61832
  0
LINE
  8
0
 10
-13.2865
 20
3.61832
 11
-13.4963
 21
3.38527
  0
LINE
  8
0
 10
-13.4963
 20
3.38527
 11
-13.75
 21
3.20096
  0
LINE
  8
0
 10
-13.75
 20
3.20096
 11
-14.0365
 21
3.07341
  0
LINE
  8
0
 10
-14.0365
 20
3.07341
 11
-14.3432
 21
3.00821
  0
LINE
  8
0
 10
-14.3432
 20
3.00821
 11
-14.6568
 21
3.00821
  0
ENDSEC
  0
SECTION
  2
OBJECTS
  0
DICTIONARY
  0
ENDSEC
  0
EOF
